<svg width="1440" height="814" viewBox="0 0 1440 814" fill="none" xmlns="http://www.w3.org/2000/svg">
<path d="M-102.975 1139.95V1104.41L803.159 507.768C885.134 453.64 967.149 399.512 1049.2 345.384C1055.36 341.107 1062.94 339.435 1070.31 340.729C1094.9 344.114 1119.67 346.774 1148.48 350.039C1141.74 354.936 1138.13 357.777 1134.29 360.256C979.335 461.821 490.912 783.446 490.912 783.446C490.912 783.446 791.915 595.005 854.268 555.89C957.328 491.404 1060.35 426.636 1163.33 361.586C1166.27 359.772 1169.34 358.019 1172.95 355.903C1194.84 360.315 1215.95 367.976 1235.6 378.634C1234.52 383.531 1230.49 384.68 1227.55 386.917C859.319 641.798 -79.5251 1287.04 -79.5251 1287.04C-79.5251 1287.04 239.155 1082.76 300.486 1042.74C622.093 832.556 943.659 622.291 1265.19 411.945C1268.13 410.011 1271.2 408.258 1274.81 405.9C1286.53 413.864 1296.82 423.779 1305.23 435.221C1014.69 630.976 -52.287 1351.43 -52.287 1351.43C-52.287 1351.43 1024.37 642.705 1318.64 449.972C1323.57 456.562 1327.78 462.063 1333.25 469.318L-58.3599 1374.88C-66.4171 1359.59 -69.0026 1343.69 -74.5344 1327.37C-45.4924 1307.84 168.324 1168.31 168.324 1168.31C168.324 1168.31 -46.9355 1298.71 -76.5788 1316.36C-83.8894 1292.46 -89.3376 1268.02 -92.8736 1243.27C139.763 1082.88 641.294 738.829 640.692 737.862C640.091 736.895 137.719 1068.49 -96.3611 1225.68C-98.8263 1201.5 -100.991 1180.34 -103.276 1158.27C-66.1165 1133 1056.72 370.836 1056.72 370.836C1056.72 370.836 -97.9845 1136.93 -102.975 1139.95ZM654.642 677.588L434.091 1025.15L654.642 677.588Z" fill="#F5F5F5"/>
<path d="M1226.58 663.441C1278.35 632.004 1330.06 600.446 1383.34 567.981C1390.94 584.684 1397.45 601.87 1402.82 619.429L22.5115 1544.4C11.6506 1528.96 2.0393 1512.66 -6.2298 1495.67C-2.25075 1490.83 2.76392 1486.94 8.44152 1484.31C176.38 1376.82 835.627 950.666 835.627 950.666C835.627 950.666 109.577 1404.08 0.925476 1471.37C-3.64428 1474.21 -8.39445 1476.75 -13.8661 1479.83C-22.3539 1465.76 -29.6164 1450.97 -35.5725 1435.64C3.2103 1411.46 550.559 1060.15 550.559 1060.15C550.559 1060.15 -33.6483 1421.31 -38.6991 1424.22C-40.2902 1423.19 -41.5982 1421.78 -42.5021 1420.11C-43.4059 1418.44 -43.8764 1416.56 -43.8701 1414.66L1341.67 484.613C1346.46 489.537 1350.01 495.551 1352.01 502.145C1323.03 522.095 1293.87 542.227 1264.58 562.238C1170.3 626.744 885.774 821.412 856.552 840.878C856.552 840.878 669.673 962.455 670.154 963.059C670.635 963.664 859.137 844.808 859.137 844.808C888.36 825.099 1107.11 680.006 1172.71 636.719C1231.27 598.108 1289.76 559.356 1348.16 520.463C1351.41 518.287 1354.78 516.352 1358.86 513.813C1365.69 524.951 1371.38 536.761 1375.82 549.059C1373.6 555.104 1367.82 556.978 1363.37 559.88C1250.63 632.427 834.665 901.939 834.665 901.939C834.665 901.939 1154.31 707.15 1226.58 663.441Z" fill="#F5F5F5"/>
<path d="M1153.89 1166.55C1214.66 1127.82 1275.43 1089.07 1336.2 1050.3C1390.19 1015.72 1444.13 981.055 1498 946.313C1502.57 943.351 1507.26 940.57 1513.09 937.003C1517.43 951.25 1520.37 965.89 1521.87 980.712L319.306 1825.34C309.87 1821.19 301.032 1815.78 293.03 1809.26L365.184 1759.32C628.726 1577.53 1309.2 1106.94 1309.2 1106.94L975.787 1324.22C740.685 1477.38 505.624 1630.53 270.602 1783.68L260.861 1789.73C240.535 1776.6 221.018 1762.25 202.416 1746.75L1503.11 894.926C1508.58 905.384 1509.13 915.904 1512.13 926.665C1467.7 955.684 1423.74 984.4 1379.85 1013.06L1158.34 1157.55C1155.81 1159.18 1153.59 1161.17 1151.18 1162.93L1133.14 1175.02L1111.08 1189.16L1091.29 1202.22L1082.03 1208.27L1078.61 1210.32L1069.41 1216.37L883.911 1336.43L274.991 1729.4L889.262 1337.94L1071.81 1219.63L1081.01 1213.59L1084.44 1211.71L1093.64 1205.67L1114.08 1192.49L1136.09 1178.34L1153.89 1166.55Z" fill="#F5F5F5"/>
<path d="M5.677 872.92C6.33841 873.887 646.284 452.269 878.921 299.074L930.21 311.468L-98.7058 1013.36C-99.1498 1004.3 -97.9893 995.229 -95.2785 986.577C-33.6469 944.258 477.564 598.149 476.963 597.242C476.362 596.335 -31.9032 933.073 -93.6551 974.002C-90.1319 947.177 -84.7472 920.633 -77.5406 894.563L99.5975 773.652C251.301 669.486 765.639 316.365 765.639 316.365C765.639 316.365 418.639 541.925 347.146 588.415C214.182 674.383 81.2784 760.412 -51.5652 846.501C-55.233 848.919 -59.2015 851.035 -64.6131 854.239C-61.0054 837.13 -55.6539 824.918 -40.9826 815.185C221.939 640.266 484.619 465.066 747.06 289.583C749.946 287.648 753.072 285.835 756.079 283.84C784.492 284.841 812.812 287.688 840.86 292.364C618.385 447.13 180.35 754.971 180.35 754.971" fill="#F5F5F5"/>
<path d="M91.3611 1639.01L61.2969 1601.65C518.032 1299.37 974.627 997.317 1431.08 695.482C1436.2 716.261 1443.85 736.324 1453.87 755.213L110.662 1656.49C104.65 1656.12 102.725 1652.5 100.32 1647.18C138.682 1620.88 746.219 1202.46 743.694 1204.04C743.934 1204.04 117.637 1621.6 91.3611 1639.01Z" fill="#F5F5F5"/>
<path d="M475.4 1891.66C449.932 1884.14 424.968 1874.99 400.66 1864.27L1529.75 1119.46C1532.46 1145.51 1528.19 1168.97 1526.74 1193.03L475.4 1891.66Z" fill="#F5F5F5"/>
<path d="M1529.69 1055.32C1530.29 1068.13 1530.77 1079.5 1531.31 1092.07L368.371 1850.79L327.062 1830.24L1524.22 999.514L1527.83 1023.27C1482.49 1055.98 1009.46 1393.93 1009.46 1393.93C1009.46 1393.93 1523.74 1058.94 1529.69 1055.32Z" fill="#F5F5F5"/>
<path d="M180.77 1729.21L144.693 1696.63L1480.5 819.175C1484.53 830.843 1488.08 841 1491.81 851.7L180.77 1729.21Z" fill="#F5F5F5"/>
<path d="M944.22 316.365C969.594 322.41 992.323 333.413 1019.14 337.464L-102.675 1085.06C-103.55 1082.96 -104 1080.71 -104 1078.44C-104 1076.17 -103.55 1073.92 -102.675 1071.82C-42.5463 1029.2 332.294 765.49 331.753 764.704C331.212 763.918 -41.6444 1018.62 -101.592 1059.18C-104.659 1052.05 -101.592 1046.37 -102.013 1039.78L944.22 316.365Z" fill="#F5F5F5"/>
<path d="M1240.89 1583.15L1453.87 1444.11L1456.51 1446.89C1443.77 1470.22 1436.97 1495.86 1411.18 1512.42C1203.85 1645.66 997.012 1779.82 790.651 1914.87C766.6 1930.47 742.188 1924 716.814 1924C780.49 1879.87 1069.65 1686.53 1071.57 1681.82C1066.58 1682.91 716.814 1908.53 715.13 1910.22C697.092 1927.21 675.385 1928.35 648.508 1923.52L1483.09 1374.4C1483.05 1383.24 1480.84 1391.93 1476.64 1399.69C1472.44 1407.46 1466.39 1414.06 1459.04 1418.9C1383.48 1469.96 1309.82 1523.62 1238.07 1579.89L1223.58 1589.2C1229.92 1589.56 1236.14 1587.39 1240.89 1583.15Z" fill="#F5F5F5"/>
<path d="M1415.51 658.242L1423.62 682.424L57.3879 1594.1C46.5047 1584 40.1311 1571.61 31.4726 1559.21L1415.51 658.242Z" fill="#F5F5F5"/>
<path d="M726.555 285.472L-39.1194 785.501C-30.9419 761.318 -19.3973 741.973 -10.2578 721.72C0.167816 699.5 16.9061 680.882 37.8449 668.217C224.563 544.645 410.961 420.57 597.039 295.991C604.547 291.076 613.175 288.164 622.112 287.527C656.753 283.094 691.768 282.405 726.555 285.472Z" fill="#F5F5F5"/>
<path d="M550.138 1911.06L496.022 1897.89L1522.83 1215.82C1522.05 1230.48 1519.89 1245.04 1516.4 1259.29L550.138 1911.06Z" fill="#F5F5F5"/>
<path d="M1498.36 1335.16L1295.31 1473.12C1078.85 1620.07 862.566 1767.18 646.464 1914.45C642.124 1917.72 637.164 1920.06 631.89 1921.33C626.617 1922.59 621.141 1922.76 615.799 1921.83C603.773 1919.77 592.109 1918.14 576.896 1915.78L1510.03 1283.96C1508.58 1302.82 1502.87 1318.18 1498.36 1335.16Z" fill="#F5F5F5"/>
<path d="M121.963 1673.05L1460.18 770.931C1464.61 779.998 1467.3 789.822 1468.12 799.889L344.378 1538.23C276.233 1583.09 207.947 1627.87 139.521 1672.57C134.831 1675.59 129.84 1682.6 121.963 1673.05Z" fill="#F5F5F5"/>
<path d="M578.459 296.475L24.6174 669.486L21.3704 666.766C34.1176 649.778 41.8141 628.739 59.7924 615.923C199.531 516.896 339.429 418.152 479.488 319.69C482.623 317.145 486.133 315.106 489.89 313.644C518.715 304.741 548.409 298.985 578.459 296.475Z" fill="#F5F5F5"/>
<path d="M1350.27 1617.07C1322.37 1656.67 1288.03 1690.28 1252.02 1722.08C1160.74 1803.38 1052.35 1862.87 934.961 1896.07C931.654 1897.04 922.935 1899.16 919.448 1900.06C922.686 1896.6 926.319 1893.54 930.271 1890.93C1066.8 1800.73 1203.41 1710.59 1340.11 1620.51C1343.05 1618.58 1345.76 1614.47 1350.45 1617.25L1350.27 1617.07Z" fill="#F5F5F5"/>
<path d="M1428.98 1514.84C1422.96 1530.07 1411.9 1539.81 1398.91 1548.94C1299.26 1618.1 1199.87 1687.56 1100.73 1757.33L878.921 1914.21L870.503 1914.57L1089.07 1756.12L953.179 1846.8C919.387 1869.29 885.715 1891.84 852.284 1914.87C847.74 1918.13 842.569 1920.4 837.102 1921.54C831.635 1922.67 825.993 1922.65 820.536 1921.46C836.17 1910.76 849.939 1901.21 863.829 1891.84C1047.54 1768.27 1231.29 1644.78 1415.09 1521.37C1419.17 1518.59 1422.48 1512.54 1429.16 1515.32L1428.98 1514.84Z" fill="#F5F5F5"/>
<path d="M1465.95 52.8383V83.5498L1288.57 203.373C1287.62 188.929 1292.35 174.686 1301.74 163.714C1339.26 119.884 1377.62 76.8996 1417.73 35.427C1427.71 25.1496 1439.26 15.9603 1442.26 0C1459.16 3.80871 1463.07 15.2953 1465.53 28.5351C1439.2 48.7878 1381.71 93.6459 1381.71 93.6459C1381.71 93.6459 1440.04 65.8967 1465.95 52.8383Z" fill="#F5F5F5"/>
<path d="M1459.82 162.383C1463.43 160.026 1471.85 153.738 1471.85 153.738C1473.47 162.383 1475.81 174.172 1477.56 183.543C1446.05 204.34 1379.01 250.588 1379.01 250.588L1468.06 208.813C1468.06 208.813 1347.8 295.326 1294.53 332.627C1292.66 311.346 1290.08 286.378 1288.82 272.171C1288.57 272.292 1411 193.82 1459.82 162.383Z" fill="#F5F5F5"/>
<path d="M1439.56 148.298L1463.01 137.174C1464.99 146.786 1457.6 148.177 1453.45 151.079C1403.06 186.264 1288.58 263.466 1288.58 263.466V214.557L1459.52 99.6912C1463.01 110.09 1461.5 119.339 1462.11 129.194L1437.03 145.093L1431.32 148.6L1427.53 150.474L1421.52 153.92C1414.48 157.305 1363.56 189.226 1363.56 189.226C1370.53 185.296 1416.71 160.328 1423.68 156.399L1429.7 153.376L1433.36 151.502L1439.56 148.298Z" fill="#F5F5F5"/>
<path d="M391.521 354.15L151.008 514.418L148.603 510.79C218.541 443.509 299.789 389.226 388.575 350.462L391.521 354.15Z" fill="#F5F5F5"/>
<path d="M1444.37 292.848L1459.04 310.985L1357.9 384.257L1323.21 374.765L1444.37 292.848Z" fill="#F5F5F5"/>
<path d="M1449.96 409.527L1419.47 402.091L1494.57 341.635L1520.85 352.94L1449.96 409.527Z" fill="#F5F5F5"/>
<path d="M1484.3 334.078L1400.12 395.924L1376.06 388.367L1467.1 319.871L1484.3 334.078Z" fill="#F5F5F5"/>
<path d="M1544 363.157C1544 363.157 1500.89 417.93 1469.08 413.456L1533.84 357.898C1533.84 357.898 1540.99 361.888 1544 363.157Z" fill="#F5F5F5"/>
<path d="M1350.57 1617.25C1349.25 1616.04 1349.73 1615.32 1351.29 1614.83C1352.67 1616.4 1351.29 1616.65 1350.27 1617.07L1350.57 1617.25Z" fill="#F5F5F5"/>
<path d="M1429.04 1515.08L1428.85 1514.05L1428.92 1514.84L1429.04 1515.08Z" fill="#F5F5F5"/>
</svg>
