<svg width="34" height="40" viewBox="0 0 34 40" fill="none" xmlns="http://www.w3.org/2000/svg">
<path d="M0.0210648 23.6814V22.9417C1.49964 21.9597 3.0004 20.9628 4.503 19.9679L18.7177 10.5452C20.4032 9.4245 22.0938 8.30192 23.7892 7.17749C23.8519 7.13333 23.9228 7.10209 23.9976 7.08558C24.0725 7.06907 24.1499 7.06762 24.2254 7.08132C24.7336 7.15159 25.2437 7.20523 25.8352 7.26626C25.6966 7.36612 25.6226 7.4253 25.5432 7.47709C22.355 9.59649 12.2637 16.2783 12.2637 16.2783L19.7675 11.5531C21.8905 10.2117 24.0134 8.8666 26.1364 7.51777C26.1974 7.47894 26.2603 7.4438 26.3342 7.39941C26.7908 7.49153 27.2307 7.65241 27.639 7.87656C27.6169 7.97642 27.5337 8.00601 27.4727 8.04855C19.8747 13.3341 0.503451 26.7403 0.503451 26.7403C0.503451 26.7403 7.08127 22.4867 8.34545 21.6619L28.2508 8.56083C28.3118 8.52014 28.3728 8.48316 28.4504 8.43507C28.6921 8.60174 28.9039 8.80808 29.077 9.04537C23.0813 13.1103 1.06716 28.0737 1.06716 28.0737C1.06716 28.0737 23.2791 13.3526 29.3486 9.35607L29.6499 9.75739L0.941479 28.5601C0.803851 28.241 0.691984 27.9114 0.606951 27.5744C1.20762 27.1675 5.61933 24.2696 5.61933 24.2696C5.61933 24.2696 1.1836 26.9789 0.56629 27.3469C0.415287 26.8502 0.302828 26.3426 0.229914 25.8286C5.03529 22.4997 15.3853 15.3518 15.3631 15.3314C15.341 15.3111 4.98169 22.1964 0.157833 25.4624C0.106083 24.9631 0.0617256 24.5211 0.0136719 24.0624L23.95 7.70641C23.95 7.70641 0.124565 23.6167 0.0210648 23.6814Z" fill="#EF8E1E"/>
<path d="M27.4552 13.7798C28.5235 13.1269 29.5899 12.4704 30.6896 11.7954C30.8466 12.1446 30.9812 12.5035 31.0925 12.8699L2.61144 32.0776C2.38932 31.7574 2.19339 31.4197 2.02555 31.0679C2.10709 30.9662 2.21077 30.8846 2.32866 30.8293C5.78484 28.5989 19.3988 19.7459 19.3988 19.7459C19.3988 19.7459 4.41715 29.1667 2.17526 30.5611C2.081 30.6203 1.99044 30.6739 1.8703 30.7461C1.69401 30.4518 1.54432 30.1423 1.42303 29.8214C2.22147 29.3165 13.5159 22.0225 13.5159 22.0225L1.3528 29.5828C1.32004 29.5612 1.29312 29.5318 1.27442 29.4973C1.25572 29.4628 1.24582 29.4242 1.24561 29.3849L29.8302 10.0699C29.9302 10.1743 30.0037 10.3011 30.0446 10.4398L28.2389 11.6881C26.2945 13.0271 20.4209 17.0698 19.8202 17.4748C19.8202 17.4748 15.9648 19.9993 15.9722 20.0122C15.9796 20.0252 19.8738 17.5488 19.8738 17.5488C20.4763 17.1401 24.9897 14.1274 26.3426 13.2268C27.5489 12.4242 28.7551 11.6197 29.9614 10.8133C30.0298 10.769 30.0982 10.7283 30.1832 10.6765C30.325 10.9103 30.442 11.1582 30.5325 11.4162C30.4863 11.5475 30.368 11.5808 30.2756 11.64L19.3711 18.7454C19.3711 18.7454 25.9637 14.6915 27.4552 13.7798Z" fill="#EF8E1E"/>
<path d="M25.9544 24.2344C27.2088 23.4281 28.4631 22.623 29.7174 21.8191L33.0553 19.659C33.1496 19.598 33.2401 19.5407 33.3677 19.4741C33.4586 19.77 33.5205 20.0742 33.5525 20.3821L8.74195 37.9162C8.5471 37.8294 8.36443 37.7175 8.19858 37.5833L9.68824 36.5421C15.1257 32.7675 29.1703 22.9935 29.1703 22.9935L22.2802 27.506C17.4292 30.6845 12.5789 33.8648 7.72913 37.047L7.52952 37.1765C7.10934 36.9037 6.70629 36.6054 6.32263 36.2832L33.1607 18.5901C33.2455 18.803 33.3075 19.0243 33.3455 19.2503L30.6138 21.0442L26.0524 24.0458C26.0006 24.0809 25.9544 24.1216 25.9045 24.1586L25.5349 24.4064L25.0654 24.706C24.9305 24.7985 24.7938 24.891 24.657 24.9797L24.4722 25.1018L24.4019 25.1462L24.2171 25.2682L20.3784 27.7557L7.81045 35.9207L20.4856 27.7834L24.2578 25.3256L24.4426 25.2035L24.5128 25.1647L24.6977 25.0371L25.119 24.7652L25.5737 24.4711L25.9544 24.2344Z" fill="#F09126"/>
<path d="M2.264 18.1351C2.27694 18.1555 15.4806 9.39861 20.2823 6.21581L21.3395 6.47473L0.11082 21.0516C0.101949 20.864 0.125713 20.6763 0.181052 20.4968C1.45263 19.6202 12.0097 12.4298 11.9875 12.4113C11.9653 12.3928 1.48959 19.3853 0.21432 20.2342C0.287018 19.6773 0.398178 19.1261 0.547 18.5845L4.20093 16.0657C7.33182 13.9093 17.9443 6.58199 17.9443 6.58199C17.9443 6.58199 10.7843 11.2591 9.30942 12.2189L1.08298 17.5803C1.00721 17.6303 0.925885 17.6728 0.813144 17.7394C0.832668 17.5788 0.886311 17.4242 0.97047 17.2861C1.05463 17.148 1.16736 17.0295 1.30107 16.9386C6.72252 13.3101 12.144 9.67294 17.5654 6.02717L17.7502 5.90881C18.3371 5.93147 18.9218 5.99326 19.5005 6.09375C14.9114 9.30799 5.87173 15.7106 5.87173 15.7106" fill="#F09126"/>
<path d="M4.03266 34.0473C3.82566 33.7921 3.63344 33.5498 3.40796 33.2706L31.671 14.4493C31.776 14.8807 31.9336 15.2975 32.1404 15.6903L4.42818 34.408C4.30989 34.408 4.26369 34.3266 4.21563 34.223C5.00667 33.6775 17.5413 24.9872 17.4951 25.0186L4.03266 34.0473Z" fill="#EF8E1E"/>
<path d="M11.9558 39.294C11.4302 39.138 10.9152 38.9477 10.4144 38.7244L33.7113 23.256C33.7667 23.7961 33.678 24.2843 33.6484 24.7836L11.9558 39.294Z" fill="#EF8E1E"/>
<path d="M33.7097 21.9319C33.7227 22.1982 33.7319 22.4312 33.743 22.6957L9.74754 38.4451L8.89551 38.0216L33.5951 20.7686C33.6229 20.9536 33.645 21.0978 33.6691 21.2624C32.7339 21.9319 22.9734 28.9596 22.9734 28.9596C22.9734 28.9596 33.5877 21.9985 33.7097 21.9319Z" fill="#EF8E1E"/>
<path d="M5.87515 35.9207L5.13586 35.2439L32.6928 17.0181L32.9257 17.695L5.87515 35.9207Z" fill="#EF8E1E"/>
<path d="M21.6297 6.58197C22.1527 6.70403 22.624 6.93705 23.1748 7.02028L0.0276468 22.5552C0.00939769 22.5115 0 22.4647 0 22.4174C0 22.3701 0.00939769 22.3232 0.0276468 22.2796C1.27335 21.3956 9.00261 15.9177 8.99152 15.901C8.98043 15.8844 1.28629 21.1589 0.0461289 22.004C-0.0185588 21.8542 0.0461289 21.7377 0.0461289 21.599L21.6297 6.58197Z" fill="#F09126"/>
<path d="M27.751 32.8859L32.1516 29.9953L32.2071 30.0526C31.9446 30.5372 31.8042 31.0698 31.2719 31.4138C26.9939 34.1829 22.7263 36.9693 18.4693 39.773C17.9758 40.0985 17.4694 39.958 16.9463 39.958C18.2586 39.0333 24.2265 35.0238 24.2653 34.9276C24.1636 34.9498 16.9482 39.6362 16.9112 39.6713C16.5416 40.0245 16.0906 40.0504 15.5361 39.9469L32.7579 28.5435C32.7577 28.7267 32.7123 28.9071 32.6255 29.0684C32.5387 29.2298 32.4134 29.3671 32.2607 29.4682C30.702 30.5273 29.1828 31.6419 27.703 32.8119L27.4017 33.0079C27.5295 33.0137 27.6546 32.97 27.751 32.8859Z" fill="#EF8E1E"/>
<path d="M31.3531 13.6762L31.5213 14.1829L3.3304 33.1133C3.1266 32.8918 2.9475 32.6487 2.79626 32.3883L31.3531 13.6762Z" fill="#EF8E1E"/>
<path d="M17.1388 5.93285L1.34204 16.319C1.51743 15.8677 1.71608 15.4257 1.93717 14.9949C2.15162 14.5353 2.49688 14.1493 2.92966 13.8852C6.78136 11.3183 10.6257 8.74084 14.4626 6.15293C14.6168 6.04881 14.7948 5.98522 14.9801 5.96799C15.6963 5.87926 16.42 5.86748 17.1388 5.93285Z" fill="#EF8E1E"/>
<path d="M13.4993 39.6972L12.3756 39.4234L33.5673 25.2608C33.5518 25.5651 33.5078 25.8672 33.4361 26.1633L13.4993 39.6972Z" fill="#EF8E1E"/>
<path d="M33.0631 27.7353L28.875 30.6018C24.406 33.6533 19.9432 36.7067 15.4865 39.7619C15.3972 39.83 15.2948 39.8789 15.1856 39.9053C15.0765 39.9317 14.9631 39.9352 14.8525 39.9154C14.6086 39.871 14.3646 39.8377 14.0504 39.7915L33.3033 26.6719C33.2575 27.0332 33.1771 27.3893 33.0631 27.7353Z" fill="#EF8E1E"/>
<path d="M4.66309 34.7501L32.2755 16.0139C32.3665 16.2025 32.4223 16.4063 32.44 16.615L30.1944 18.0945L9.25222 31.9538C7.84387 32.8847 6.43491 33.8143 5.02534 34.7427C4.92923 34.8056 4.82573 34.9517 4.66309 34.7501Z" fill="#F09126"/>
<path d="M14.0818 6.16217L2.65425 13.9148L2.58032 13.8575C2.84462 13.5042 3.00172 13.0678 3.37321 12.8015C6.26136 10.7511 9.15075 8.69953 12.0414 6.64671C12.1059 6.5959 12.1775 6.55478 12.2539 6.52465C12.8483 6.33785 13.4612 6.2163 14.0818 6.16217Z" fill="#F09126"/>
<path d="M30.0074 33.5831C29.4173 34.387 28.735 35.1188 27.9744 35.7635C26.0969 37.4492 23.8608 38.6856 21.4354 39.3791L21.1138 39.4604C21.1816 39.3903 21.2572 39.3283 21.3393 39.2755C24.1559 37.4015 26.9745 35.5293 29.7949 33.6589C29.8559 33.6182 29.9113 33.5276 30.0074 33.5905V33.5831Z" fill="#EF8E1E"/>
<path d="M31.6302 31.4674C31.5021 31.7632 31.2842 32.011 31.0073 32.1757C28.9533 33.6109 26.903 35.0534 24.8564 36.5033L20.2784 39.7619H20.1047L24.6162 36.4719L21.8124 38.349C21.1138 38.8169 20.4189 39.2848 19.7295 39.7638C19.6361 39.8312 19.5296 39.8783 19.4169 39.9019C19.3042 39.9255 19.1877 39.925 19.0752 39.9006C19.3968 39.6787 19.6814 39.479 19.9679 39.2848C23.7592 36.7191 27.5505 34.1546 31.3418 31.5913C31.4269 31.534 31.4953 31.4064 31.632 31.4656L31.6302 31.4674Z" fill="#F09126"/>
<path d="M32.3939 1.10409V1.74213L28.7344 4.22771C28.7153 3.92792 28.8141 3.63255 29.0098 3.40473C29.7842 2.49483 30.5771 1.60157 31.4125 0.739756C31.6195 0.527076 31.8579 0.336589 31.9189 0C32.2663 0.0795238 32.3477 0.318095 32.3994 0.593654C31.856 1.01347 30.6695 1.94556 30.6695 1.94556C30.6695 1.94556 31.8579 1.37225 32.3939 1.10409Z" fill="#F09126"/>
<path d="M32.2679 3.37702C32.3419 3.32893 32.5119 3.19208 32.5119 3.19208C32.5433 3.37702 32.5932 3.61559 32.6283 3.80977C31.9796 4.24253 30.5953 5.20236 30.5953 5.20236L32.4324 4.335C32.4324 4.335 29.9503 6.13261 28.8524 6.9075C28.8136 6.4655 28.76 5.94767 28.7341 5.65362C28.7341 5.65731 31.2606 4.02985 32.2679 3.37702Z" fill="#F09126"/>
<path d="M31.8502 3.08476L32.3363 2.85358C32.3788 3.05332 32.2254 3.08106 32.1404 3.14209C31.098 3.8726 28.7341 5.47232 28.7341 5.47232V4.4607L32.2624 2.07129C32.3094 2.27172 32.3268 2.47795 32.3141 2.68344L31.7985 3.01448L31.6802 3.0866L31.6026 3.12544L31.4824 3.19757C31.3383 3.26784 30.2866 3.93732 30.2866 3.93732C30.4308 3.85595 31.3826 3.33812 31.5268 3.25675L31.6525 3.19387L31.7282 3.15503L31.8502 3.08476Z" fill="#F09126"/>
<path d="M10.2258 7.36055L5.2689 10.6895L5.21899 10.6136C6.65874 9.21851 8.33541 8.09126 10.1704 7.28473L10.2258 7.36055Z" fill="#F09126"/>
<path d="M31.9485 6.08636L32.2516 6.46734L30.165 7.98569L29.4497 7.7878L31.9485 6.08636Z" fill="#F09126"/>
<path d="M32.0646 8.50352L31.4362 8.35002L32.985 7.09613L33.5265 7.331L32.0646 8.50352Z" fill="#F09126"/>
<path d="M32.7724 6.95186L31.0425 8.22794L30.5416 8.07074L32.4194 6.64856L32.7724 6.95186Z" fill="#F09126"/>
<path d="M34 7.54735C34 7.54735 33.1091 8.68472 32.4548 8.59225L33.7893 7.43823C33.7893 7.43823 33.9427 7.52146 34 7.54735Z" fill="#F09126"/>
<path d="M30.013 33.5941C29.9875 33.5682 29.9966 33.5534 30.0294 33.5442C30.0567 33.5775 30.0294 33.5812 30.0075 33.5904L30.013 33.5941Z" fill="#EF8E1E"/>
<path d="M31.6321 31.4728L31.6304 31.4507V31.4673L31.6321 31.4728Z" fill="#F09126"/>
</svg>
