<svg width="138" height="60" viewBox="0 0 138 60" fill="none" xmlns="http://www.w3.org/2000/svg">
<path fill-rule="evenodd" clip-rule="evenodd" d="M60.8985 45.951V45.939L60.9555 44.478H61.4265V59.9805H37.788V59.1195H41.9835V0.807H37.842L37.839 0H52.9995V0.798H48.789V59.121C49.7865 59.196 50.802 59.1285 50.868 59.1195C55.5075 58.6215 58.3605 56.9655 59.592 54.0495C60.6885 51.6435 60.795 48.75 60.897 45.9495L60.8985 45.951ZM99.6285 54.051C100.729 51.6405 100.835 48.741 100.937 45.939L100.997 44.478H101.464V59.9805H77.829V59.1195H82.023V0.807H77.88L77.877 0H93.039V0.798H88.827V59.121C89.826 59.196 90.8415 59.1285 90.906 59.1195C95.5455 58.6215 98.3985 56.9655 99.63 54.0495L99.6285 54.051ZM23.1105 45.99C23.0085 48.795 22.9035 51.6915 21.804 54.105C20.1945 57.9165 16.0545 58.782 13.0815 59.1C12.3889 59.1487 11.6937 59.1492 11.001 59.1015V30.135C11.9565 30.12 13.494 30.2325 13.8555 30.324C15.327 30.636 16.641 32.13 17.061 33.393C17.6985 35.322 17.742 37.4295 17.787 39.6615L17.817 40.917H18.303V18.837H17.8155L17.7855 20.094C17.7405 22.326 17.6985 24.432 17.061 26.361C16.581 27.807 15.204 29.1105 13.8585 29.3955C13.5045 29.4855 11.988 29.6235 11.001 29.6175V0.9165C11.9985 0.8415 13.014 0.909 13.0755 0.9165C16.1655 1.2495 20.181 2.4495 21.8025 6.2925C22.9035 8.706 23.0085 11.604 23.1105 14.4075L23.169 15.87H23.6145V0.0075L0.048 0.006V0.075L0.0525 0.852H4.0785L4.161 0.873L4.194 0.8805V59.1H0V59.985H23.637V44.529H23.1675L23.109 45.9915L23.1105 45.99ZM137.474 46.005L137.532 44.541H138V60H114.363V59.115H118.557V0.8955C118.519 0.886541 118.481 0.876537 118.443 0.8655H114.415L114.413 0.0195H137.976V15.885H137.53L137.471 14.421C137.37 11.619 137.265 8.721 136.165 6.306C134.542 2.4645 130.525 1.263 127.437 0.93C126.746 0.882694 126.053 0.882694 125.362 0.93V29.6295C126.349 29.637 127.868 29.4975 128.22 29.409C129.566 29.124 130.942 27.819 131.423 26.3745C132.06 24.447 132.104 22.3395 132.148 20.109L132.178 18.8505H132.665V40.9305H132.178L132.148 39.672C132.104 37.4415 132.059 35.337 131.423 33.4065C131.003 32.1435 129.69 30.6495 128.217 30.3375C127.857 30.246 126.318 30.1335 125.362 30.1485V59.115C126.055 59.1631 126.749 59.1631 127.441 59.115C130.415 58.7955 134.556 57.93 136.165 54.117C137.265 51.705 137.37 48.807 137.471 46.005H137.474Z" fill="#101010"/>
</svg>
