<svg width="138" height="138" viewBox="0 0 138 138" fill="none" xmlns="http://www.w3.org/2000/svg">
<g filter="url(#filter0_d)">
<path d="M4.71753 2.24707H130.224V127.754H4.71753V2.24707Z" fill="#FF0000"/>
<path fill-rule="evenodd" clip-rule="evenodd" d="M40.5606 54.5679H46.1781V24.0745H41.0668C41.0668 24.0745 32.5908 41.8401 32.2666 42.5024V24.0745H26.6904V54.5679H31.8781L40.5606 36.8129V54.5679ZM56.2676 49.2471C56.4909 48.7567 56.6701 48.2474 56.8029 47.7253C57.4549 44.4755 57.7726 41.1675 57.7512 37.8529L58.0571 29.4687H64.0585V49.2471H56.2676ZM48.2505 54.5526H71.8646V49.2471H69.6332L69.5919 24.0745H53.0437L52.6215 36.5942C52.5145 40.0951 52.5114 44.9402 51.2298 47.5831C50.9374 48.1949 50.5333 48.7468 50.0384 49.2104C49.7325 49.2838 49.4404 49.3495 49.1605 49.4107C48.8439 49.478 48.5151 49.5407 48.1725 49.5958L47.7565 49.6646V54.5587H48.252L48.2505 54.5526ZM73.9844 54.5633H90.1762V48.9534H79.0941V41.8524H88.6269V36.452H79.0941V29.5605H90.1686V24.0745H73.4873V54.5679H73.9828L73.9844 54.5633ZM111.311 54.5633V24.0745H106.2L97.3981 42.5008V24.0745H91.8234V54.5679H97.0097L105.691 36.8129V54.5679H111.31L111.311 54.5633ZM50.1439 67.0678C50.1457 67.2524 50.1262 67.4366 50.0858 67.6168C50.053 67.7668 49.9906 67.9088 49.9022 68.0344C49.8195 68.146 49.7094 68.2345 49.5826 68.2913C49.4095 68.362 49.2234 68.3953 49.0366 68.3892H47.8268V65.8396H49.0213C49.1785 65.8197 49.3382 65.837 49.4875 65.8901C49.6368 65.9432 49.7716 66.0307 49.8808 66.1455C50.069 66.4132 50.1617 66.7364 50.1439 67.0632V67.0678ZM49.9986 62.6661C50.0146 62.9702 49.9207 63.2698 49.734 63.5104C49.6247 63.6199 49.4923 63.7035 49.3465 63.7551C49.2007 63.8067 49.0451 63.825 48.8913 63.8086H47.8207V61.5604H48.8699C49.0251 61.5431 49.1821 61.5588 49.3308 61.6065C49.4794 61.6542 49.6163 61.7328 49.7325 61.8372C49.921 62.0712 50.0144 62.3678 49.994 62.6676L49.9986 62.6661ZM51.4408 69.6815C52.0438 68.9902 52.3495 68.0888 52.2912 67.1733C52.2905 66.9009 52.2618 66.6293 52.2055 66.3627C52.1492 66.1 52.0582 65.8459 51.9348 65.6072C51.8113 65.3687 51.6455 65.1547 51.4454 64.9755C51.351 64.8917 51.2486 64.8174 51.1395 64.7538C51.4424 64.5541 51.6868 64.2775 51.8476 63.9524C52.0461 63.5321 52.1475 63.0727 52.1444 62.608C52.1868 61.7694 51.9023 60.947 51.3506 60.3139C51.0413 60.0128 50.6719 59.7805 50.2665 59.6324C49.8611 59.4842 49.4289 59.4236 48.9984 59.4544H45.6336V70.5655H49.1788C49.5973 70.5823 50.0147 70.5123 50.4048 70.3599C50.7949 70.2075 51.1492 69.976 51.4454 69.68L51.4408 69.6815ZM56.9895 66.2082H55.5855L56.0291 64.4051L55.7859 64.3454L55.9098 64.3699L56.0306 64.3989L56.2921 63.1922C56.2921 63.2228 56.3059 63.258 56.3151 63.2901C56.3671 63.5211 56.416 63.7489 56.4588 63.9539C56.5016 64.1588 56.5338 64.3209 56.5567 64.4127L56.9895 66.2082ZM58.0601 70.5671H60.3695L57.2847 59.4605H55.2842L52.2147 70.5716H54.4813L54.5409 70.3881C54.5731 70.2856 54.6144 70.1312 54.6679 69.9155C54.7214 69.6999 54.7811 69.4735 54.8438 69.2319L55.0227 68.5528C55.0502 68.4488 55.0747 68.3616 55.0931 68.2852H57.4942L58.0601 70.5671ZM60.8987 70.5671H71.0158V59.4605H68.8471V68.4335H67.0576V59.4605H64.8599V68.4335H63.0995V59.4605H60.8941V70.5716L60.8987 70.5671ZM72.5574 70.5671H78.4533V68.3907H74.4768V66.0064H77.8951V63.9019H74.4814V61.594H78.4579V59.4528H72.2959V70.564H72.5574V70.5671ZM81.3638 61.5909H85.2806V59.4498H79.1828V70.5609H81.3638V61.594V61.5909ZM90.1441 67.2314C90.1552 67.3994 90.131 67.5678 90.0731 67.7259C90.0151 67.8839 89.9247 68.0281 89.8076 68.1491C89.7047 68.2568 89.5803 68.3418 89.4426 68.3987C89.3048 68.4556 89.1567 68.4831 89.0078 68.4794C88.8332 68.5014 88.656 68.4761 88.4945 68.4062C88.3331 68.3362 88.1934 68.2242 88.0901 68.0818C87.8827 67.7401 87.7806 67.3448 87.7965 66.9454L87.7842 62.8971C87.7849 62.7455 87.806 62.5948 87.8469 62.4489C87.8878 62.2971 87.9551 62.1537 88.0458 62.0253C88.1435 61.8918 88.27 61.7821 88.4159 61.7041C88.5946 61.6133 88.7937 61.5701 88.994 61.5787C89.1851 61.5686 89.375 61.6148 89.54 61.7118C89.6819 61.7998 89.8034 61.9171 89.8964 62.0559C89.9841 62.1872 90.0487 62.3326 90.0875 62.4856C90.1219 62.616 90.1409 62.75 90.1441 62.8848V67.2345V67.2314ZM92.3541 67.0953V62.9154C92.3536 62.4894 92.2881 62.066 92.1599 61.6598C92.0344 61.2423 91.8264 60.8543 91.5481 60.5188C91.259 60.175 90.9004 59.8961 90.4959 59.7006C90.0281 59.4801 89.5156 59.3712 88.9986 59.3825C88.456 59.3671 87.9175 59.4814 87.4279 59.7159C87.0225 59.9208 86.6658 60.2102 86.3818 60.5647C86.1151 60.9025 85.9167 61.289 85.7975 61.7026C85.6815 62.0965 85.6218 62.5048 85.6201 62.9154V66.9179C85.6168 67.3907 85.6791 67.8616 85.8052 68.3173C85.9196 68.753 86.1204 69.1612 86.3955 69.5179C86.6763 69.8786 87.0406 70.1658 87.4569 70.3545C87.9413 70.5694 88.4674 70.6739 88.9971 70.6604C89.4578 70.665 89.9152 70.5815 90.3445 70.4141C90.748 70.2505 91.1127 70.0041 91.4151 69.6907C91.7233 69.3658 91.9608 68.9804 92.1125 68.5589C92.2788 68.0902 92.3606 67.5957 92.3541 67.0984V67.0953ZM102.211 94.3219L104.573 84.7921L106.738 94.3219H102.211ZM107.082 75.4459H101.856L93.4079 106.016H99.2824L100.951 99.6412H108.031L109.615 106.016H115.571L107.082 75.4459ZM80.2029 91.4466L73.7794 75.4444H68.5244V106.016H74.1465V90.3408L78.2759 100.703H82.2417L86.3328 90.3944V106.016H91.9565V75.4444H86.6617L80.2029 91.4466ZM60.6142 96.9341C60.6453 97.434 60.5717 97.9349 60.3981 98.4047C60.2246 98.8745 59.9549 99.3029 59.6064 99.6626C59.2934 99.9807 58.9193 100.232 58.5067 100.402C58.0941 100.572 57.6514 100.657 57.2052 100.652C56.6778 100.709 56.1448 100.626 55.6599 100.411C55.1749 100.196 54.7552 99.8574 54.4431 99.4286C53.844 98.4335 53.547 97.2858 53.5881 96.1251L53.5484 84.8074C53.5542 84.3623 53.6169 83.9198 53.7349 83.4906C53.8578 83.0372 54.0597 82.609 54.3314 82.2258C54.6227 81.8283 54.9989 81.5007 55.4326 81.2668C55.9672 80.9922 56.5633 80.8595 57.1639 80.8814C57.746 80.8543 58.3235 80.9967 58.8264 81.2913C59.2455 81.5564 59.6049 81.9059 59.8816 82.3175C60.1415 82.7059 60.332 83.1365 60.4445 83.59C60.5476 83.9744 60.6041 84.3698 60.6127 84.7676V96.9341H60.6142ZM64.1059 78.3212C63.3183 77.3838 62.3416 76.6234 61.2398 76.0898C59.964 75.4912 58.5665 75.1975 57.1578 75.2318C55.6815 75.1876 54.2161 75.4981 52.8846 76.1372C51.7813 76.6873 50.8103 77.47 50.0384 78.4313C49.3095 79.3517 48.7681 80.4059 48.4447 81.5345C48.1271 82.6139 47.9634 83.7327 47.9584 84.8579V96.0471C47.9524 97.3467 48.1227 98.6412 48.4646 99.8951C48.7809 101.082 49.3276 102.194 50.0735 103.17C50.8415 104.145 51.8308 104.924 52.9595 105.441C54.2797 106.025 55.7131 106.309 57.1562 106.271H57.1654C58.4207 106.285 59.6668 106.057 60.836 105.6C61.9387 105.163 62.9337 104.492 63.7526 103.634C64.5905 102.749 65.2367 101.7 65.6506 100.553C66.106 99.2698 66.3292 97.916 66.3098 96.5548V84.8625C66.3084 83.6951 66.1294 82.5348 65.7791 81.4213C65.4292 80.2862 64.8573 79.2319 64.0967 78.3196L64.1059 78.3212ZM38.7788 100.692H30.9559C31.1829 100.2 31.3641 99.6878 31.4973 99.1625C31.7347 98.2255 31.9084 97.2736 32.0173 96.3132C32.1407 95.2803 32.2294 94.1638 32.2834 92.9638C32.3375 91.7637 32.392 90.53 32.4471 89.2626L32.7529 80.8508H38.7788V100.692ZM44.3214 75.4444H27.7349L27.3098 87.9947C27.2567 89.8902 27.1895 91.5363 27.1079 92.9332C27.0495 94.1372 26.91 95.3359 26.6904 96.5212C26.5375 97.3834 26.277 98.223 25.9149 99.0202C25.6215 99.634 25.2159 100.187 24.7189 100.652C24.4131 100.726 24.1179 100.791 23.8349 100.854C23.5184 100.924 23.188 100.986 22.8439 101.041L22.4294 101.109V106.004H46.5941V100.693H44.3642L44.3214 75.4444ZM134 130H4V0H134V130ZM8.81459 125.185H129.179V4.81459H8.81459V125.179V125.185Z" fill="white"/>
</g>
<defs>
<filter id="filter0_d" x="0" y="0" width="138" height="138" filterUnits="userSpaceOnUse" color-interpolation-filters="sRGB">
<feFlood flood-opacity="0" result="BackgroundImageFix"/>
<feColorMatrix in="SourceAlpha" type="matrix" values="0 0 0 0 0 0 0 0 0 0 0 0 0 0 0 0 0 0 127 0" result="hardAlpha"/>
<feOffset dy="4"/>
<feGaussianBlur stdDeviation="2"/>
<feComposite in2="hardAlpha" operator="out"/>
<feColorMatrix type="matrix" values="0 0 0 0 0 0 0 0 0 0 0 0 0 0 0 0 0 0 0.25 0"/>
<feBlend mode="normal" in2="BackgroundImageFix" result="effect1_dropShadow"/>
<feBlend mode="normal" in="SourceGraphic" in2="effect1_dropShadow" result="shape"/>
</filter>
</defs>
</svg>
