<svg width="186" height="64" viewBox="0 0 186 64" fill="none" xmlns="http://www.w3.org/2000/svg">
<path d="M148.263 20.1002V44.117H159.571V32.1086C161.691 32.815 164.872 33.5213 168.052 39.1724C170.311 43.186 172.999 44.117 174.412 44.117H185.72C184.542 42.3511 181.48 38.1834 178.653 35.6405C175.119 32.4618 172.999 31.049 169.465 30.3426C173.235 28.3412 180.773 26.8107 180.773 20.1002H168.759C168.759 25.7512 165.932 29.2831 159.571 29.2831V20.1002H148.263Z" fill="#90949B"/>
<path d="M111.159 24.3384V20.1002H128.121H145.083V24.3384H134.482V44.117H128.121H121.76V24.3384H111.159Z" fill="#90949B"/>
<path fill-rule="evenodd" clip-rule="evenodd" d="M73.7021 20.1002V38.1128C73.7021 40.1142 77.5185 44.117 92.7841 44.117C96.3178 44.117 98.0847 44.117 100.558 44.117C104.799 44.117 111.513 43.0574 111.866 38.1128C112.219 33.1682 109.039 30.6958 104.092 30.3426C105.505 30.3426 109.039 29.3537 109.039 25.398C109.039 21.4423 103.621 20.2179 100.912 20.1002H73.7021ZM85.7167 36.3468V24.3384H93.4908C94.4332 24.3384 96.3178 24.8568 96.3178 26.6509C96.3178 28.6199 91.135 30.2249 88.5437 30.3426C88.5437 32.3205 91.8418 32.815 93.4908 32.815C98.014 32.815 99.1448 35.6405 99.1448 37.0532C99.1448 38.466 98.438 39.8787 92.7841 39.8787C87.1302 39.8787 85.7167 37.5241 85.7167 36.3468Z" fill="#90949B"/>
<path d="M2.97446 15.1972L13.1432 9.26847L23.3119 15.1972C24.5829 15.9382 25.3645 17.2987 25.3645 18.7699V28.2773C25.3645 29.7486 24.5829 31.109 23.3119 31.8501L15.2262 36.5643C13.9389 37.3148 12.3474 37.3148 11.0602 36.5643L2.97446 31.8501C1.70348 31.109 0.921875 29.7486 0.921875 28.2773V18.7699C0.921875 17.2987 1.70348 15.9382 2.97446 15.1972Z" stroke="#90949B"/>
<path d="M2.97446 32.1503L13.1432 26.2216L23.3119 32.1503C24.5829 32.8913 25.3645 34.2518 25.3645 35.723V45.2305C25.3645 46.7017 24.5829 48.0622 23.3119 48.8032L15.2262 53.5174C13.9389 54.268 12.3474 54.268 11.0602 53.5174L2.97446 48.8032C1.70348 48.0622 0.921875 46.7017 0.921875 45.2305V35.723C0.921875 34.2518 1.70348 32.8913 2.97446 32.1503Z" stroke="#90949B"/>
<path d="M32.6571 15.1972L42.8258 9.26847L52.9945 15.1972C54.2655 15.9382 55.0471 17.2987 55.0471 18.7699V28.2773C55.0471 29.7486 54.2655 31.109 52.9945 31.8501L44.9088 36.5643C43.6215 37.3148 42.03 37.3148 40.7428 36.5643L32.6571 31.8501C31.3861 31.109 30.6045 29.7486 30.6045 28.2773V18.7699C30.6045 17.2987 31.3861 15.9382 32.6571 15.1972Z" stroke="#90949B"/>
<path d="M32.6571 32.1503L42.8258 26.2216L52.9945 32.1503C54.2655 32.8913 55.0471 34.2518 55.0471 35.723V45.2305C55.0471 46.7017 54.2655 48.0622 52.9945 48.8032L44.9088 53.5174C43.6215 54.268 42.03 54.268 40.7428 53.5174L32.6571 48.8032C31.3861 48.0622 30.6045 46.7017 30.6045 45.2305V35.723C30.6045 34.2518 31.3861 32.8913 32.6571 32.1503Z" stroke="#90949B"/>
<path d="M17.8163 6.72063L27.985 0.791912L38.1537 6.72063C39.4247 7.46165 40.2063 8.82211 40.2063 10.2933V19.8008C40.2063 21.272 39.4247 22.6325 38.1537 23.3735L30.068 28.0877C28.7807 28.8383 27.1892 28.8383 25.902 28.0877L17.8163 23.3735C16.5453 22.6325 15.7637 21.272 15.7637 19.8008V10.2933C15.7637 8.82211 16.5453 7.46165 17.8163 6.72063Z" stroke="#90949B"/>
<path d="M17.8163 40.6266L27.985 34.6979L38.1537 40.6266C39.4247 41.3677 40.2063 42.7281 40.2063 44.1993V53.7068C40.2063 55.178 39.4247 56.5385 38.1537 57.2795L30.068 61.9937C28.7807 62.7443 27.1892 62.7443 25.902 61.9937L17.8163 57.2795C16.5453 56.5385 15.7637 55.178 15.7637 53.7068V44.1993C15.7637 42.7281 16.5453 41.3677 17.8163 40.6266Z" stroke="#90949B"/>
<path d="M24.0462 32.0002L14.9228 37.3195C13.8225 37.961 12.462 37.961 11.3617 37.3195L2.23828 32.0002L13.1423 25.6428L24.0462 32.0002Z" fill="#90949B"/>
<path d="M53.7298 32.0002L44.6064 37.3195C43.5061 37.961 42.1456 37.961 41.0453 37.3195L31.9219 32.0002L42.8258 25.6428L53.7298 32.0002Z" fill="#90949B"/>
<path d="M40.7056 9.92456V20.4342C40.7056 21.6903 40.038 22.8519 38.9524 23.4849L30.1045 28.6436V18.134C30.1045 16.8778 30.772 15.7162 31.8577 15.0832L40.7056 9.92456Z" fill="#90949B"/>
<path d="M25.8648 28.6436L17.0168 23.4849C15.9312 22.8519 15.2637 21.6903 15.2637 20.4342V9.92456L24.1116 15.0832C25.1972 15.7162 25.8648 16.8778 25.8648 18.134V28.6436Z" fill="#90949B"/>
<path d="M40.7056 54.0789L31.8577 48.9202C30.772 48.2873 30.1045 47.1256 30.1045 45.8695V35.3599L38.9524 40.5185C40.038 41.1515 40.7056 42.3131 40.7056 43.5693V54.0789Z" fill="#90949B"/>
<path d="M25.8648 35.3599V45.8695C25.8648 47.1256 25.1972 48.2873 24.1116 48.9202L15.2637 54.0789V43.5693C15.2637 42.3131 15.9312 41.1515 17.0168 40.5185L25.8648 35.3599Z" fill="#90949B"/>
</svg>
