<svg width="115" height="64" viewBox="0 0 115 64" fill="none" xmlns="http://www.w3.org/2000/svg">
<path fill-rule="evenodd" clip-rule="evenodd" d="M87.4023 17.8731L87.3474 17.9725C87.2979 18.0622 87.2724 18.1631 87.2734 18.2656C87.2734 18.4088 87.3218 18.5547 87.3971 18.641L87.577 18.8464C87.6654 18.9458 87.7229 19.1211 87.7229 19.2827L87.7151 19.3906L87.6719 19.6647L87.6464 19.9394C87.6261 20.1709 87.6156 20.2952 87.6156 20.3135C87.6156 20.999 88.3158 21.2947 89.9431 21.2947C91.9435 21.2947 92.357 21.6027 92.357 23.0973C92.357 25.1414 91.2845 27.9128 89.6205 30.174C88.8321 31.2447 88.643 31.5842 88.643 31.9341C88.643 32.1258 88.7169 32.1991 88.9112 32.1991C89.8607 32.1991 91.4442 31.3808 93.7239 29.7115C97.226 27.1488 99.051 26.2579 101.607 25.8655C102.298 25.7589 102.407 25.6915 102.407 25.3749C102.407 24.951 102.336 24.7116 101.776 23.2615C101.265 21.9376 100.992 20.7544 100.992 19.855C100.992 18.6639 101.054 18.571 102.176 18.0602C103.088 17.6455 103.329 17.4479 103.669 16.8423C104.093 16.0855 104.185 15.9475 104.506 15.5687C105.392 14.5248 105.719 13.7006 105.719 12.5108L105.717 12.4219L105.704 11.7972V11.7161C105.704 11.3629 105.749 11.0117 105.842 10.648L105.998 10.0358C106.103 9.62629 106.166 9.10629 106.166 8.64581C106.166 8.24288 106.126 7.94593 106.029 7.63196L105.886 7.16428L105.761 6.65213L105.687 6.05233C105.472 4.33598 104.228 2.69159 102.65 2.0375C102.045 1.78698 101.994 1.75755 101.488 1.36313C100.503 0.595879 99.9801 0.420581 98.678 0.420581L98.0341 0.426467C97.7056 0.426467 97.1586 0.359096 96.6234 0.251825L95.9985 0.126894C95.6031 0.0453299 95.2007 0.00282714 94.7971 0C94.2435 0 93.932 0.0562507 93.1305 0.30219C92.6024 0.465059 92.3878 0.512809 91.8944 0.57691C90.9731 0.697264 90.5844 0.84378 89.3267 1.54497C88.2222 2.16047 88.1254 2.23373 87.8087 2.7001C87.7322 2.81571 87.6512 2.9283 87.5659 3.03761C87.5096 3.10433 87.3873 3.23122 87.1968 3.41829C86.6753 3.9311 86.4888 4.37654 86.4888 5.11109C86.4888 6.23809 86.9515 7.00796 87.8846 7.43312C88.056 7.51161 88.1169 7.60056 88.1169 7.77325C88.1169 7.98386 88.0351 8.2298 87.6837 9.07489C87.4357 9.676 87.3886 9.81598 87.3886 9.9638C87.3886 10.073 87.4219 10.1869 87.4841 10.2928L87.6654 10.5989C87.7472 10.7376 87.7903 10.8933 87.7903 11.0496C87.7903 11.2923 87.7249 11.4813 87.5155 11.8476L87.0771 12.6096C86.1682 14.1932 85.8875 14.7864 85.8875 15.1213C85.8875 15.5059 86.0648 15.6682 86.6341 15.8003C87.2845 15.9514 87.4599 16.0809 87.4599 16.4105C87.4599 16.527 87.4239 16.6284 87.3218 16.8004C87.1877 17.0254 87.153 17.115 87.153 17.2301C87.153 17.3629 87.1635 17.3865 87.3284 17.6056L87.422 17.7305C87.4462 17.7612 87.4501 17.7691 87.4501 17.7802C87.4501 17.7894 87.4475 17.7959 87.435 17.8182L87.4023 17.8731ZM0.10868 45.4588C1.80147 46.3504 2.98911 46.6866 4.44045 46.6866C7.27965 46.6866 9.41805 44.7616 9.41805 42.2028C9.41805 40.3451 8.64331 39.3921 6.13062 38.1546L4.82455 37.5109C2.97929 36.6024 2.41917 36.051 2.41917 35.1464C2.41917 33.9337 3.4164 33.0455 4.77744 33.0455C6.17904 33.0455 7.24628 33.8003 8.26706 35.5133L8.42345 35.5199L8.46598 32.9519C6.87854 32.305 5.90815 32.0774 4.73556 32.0774C2.19866 32.0774 0.238895 33.7113 0.238895 35.826C0.238895 37.3998 1.10917 38.4064 3.55054 39.6583L4.7565 40.2751C6.7817 41.3152 7.25741 41.8247 7.25741 42.9615C7.25741 44.3783 5.99125 45.4987 4.38941 45.4987C2.51929 45.4987 1.00121 44.3044 0.427346 42.38L0.164953 42.3735L0.10868 45.4588ZM18.8917 35.5055C17.9108 35.1085 17.087 34.9423 16.0819 34.9423C12.7951 34.9423 10.4742 37.3494 10.4742 40.7605C10.4742 44.2547 12.6296 46.6591 15.7632 46.6591C16.998 46.6591 17.8408 46.3844 18.9296 45.6282L19.2293 44.061L19.1423 44.0434C18.2785 45.0219 17.403 45.4745 16.3705 45.4745C14.2386 45.4745 12.9136 43.524 12.9136 40.3863C12.9136 37.6346 14.2039 35.8705 16.2167 35.8705C17.4083 35.8705 18.1516 36.4068 18.7235 37.681H18.8923L18.8917 35.5055ZM27.8241 46.44H30.8224V46.3648C30.3015 45.9409 30.1667 45.504 30.1667 44.2416V40.1456L30.1608 39.5583C30.1261 36.3283 28.9908 34.9436 26.378 34.9436C25.0818 34.9436 23.9256 35.4342 22.753 36.4808V26.5268H19.7914V26.602C20.2704 27.0782 20.3783 27.4693 20.3783 28.7245V44.1912C20.3783 45.4647 20.2324 45.9481 19.7227 46.3641V46.4393H23.408V46.3641C22.9028 45.9527 22.7523 45.4647 22.7523 44.2409V39.7643C22.7523 37.3729 23.6448 36.223 25.4993 36.223C27.2804 36.223 27.8241 37.0472 27.8241 39.7519V46.44ZM44.4393 35.2936C44.934 35.4277 45.1839 35.7639 45.1839 36.2963C45.1839 36.5828 45.0406 37.233 44.8515 37.804L42.9467 43.5672L40.4792 35.2197H39.2667L36.5754 43.5554L34.7079 37.2918L34.6326 37.0106L34.5331 36.6233C34.4873 36.4471 34.4614 36.2664 34.4559 36.0844C34.4559 35.7076 34.5691 35.497 34.8891 35.2805V35.2H31.0723V35.2805C31.7437 35.6762 32.0866 36.3833 32.8587 38.965L35.0946 46.44H36.8122L39.2425 38.9087L41.4784 46.44H43.1895L46.1196 37.3795C46.5469 36.0562 46.8872 35.6448 47.8439 35.2936V35.2131H44.4393V35.2936ZM65.1467 35.2811L64.7227 37.56L64.8464 37.5665C65.4039 36.6685 66.1832 36.331 67.751 36.312L69.7127 36.2865L63.5527 46.44H72.5729L72.8863 43.7981H72.7482C71.9598 45.0631 71.3591 45.3594 69.5878 45.3594H66.8271L72.936 35.2811H65.1467ZM76.8026 39.6832V26.5209H73.843V26.6026C74.2951 27.0016 74.4293 27.485 74.4293 28.7252V44.1925C74.4293 45.4942 74.2938 45.9416 73.7736 46.3654V46.4406H77.4582V46.3654C76.9289 45.8879 76.8026 45.4778 76.8026 44.2422V40.2719L81.4007 46.4413H84.5984V46.3661C83.5305 45.206 82.5114 44.0018 81.544 42.7568C81.1097 42.2042 80.685 41.6442 80.2699 41.0771C80.1718 40.9417 79.8315 40.4661 79.2511 39.6538L78.8945 39.154L83.4239 35.2818V35.2013H79.7635V35.2818C79.9833 35.3636 80.1136 35.582 80.1136 35.8718C80.1136 36.6534 79.5947 37.3016 77.6153 38.9918L76.8026 39.6832ZM110.115 36.2924L110.122 44.1016C110.122 45.4929 110.012 45.8722 109.466 46.3641V46.4393H113.12V46.3641C112.599 45.9403 112.464 45.5033 112.464 44.2409L112.458 36.2924H114.257L114.469 35.2805H112.464V31.6902C112.464 30.4533 112.875 29.8044 113.658 29.8044C114.081 29.8044 114.375 29.9941 114.606 30.4167H114.643L115 28.9436C114.708 28.8619 114.425 28.8305 114.005 28.8305C111.199 28.8305 110.121 30.3316 110.121 34.2385V35.2811H109.353L109.015 36.2996L110.115 36.2924ZM60.9936 36.6672L60.987 35.2007H58.0562V35.2759C58.5391 35.7547 58.6438 36.1334 58.6438 37.3978V44.1919C58.6438 45.4922 58.5084 45.9409 57.9882 46.3648V46.44H61.642V46.3648C61.114 45.8879 60.9864 45.4732 60.9864 44.235V43.9106L60.9929 39.2142V38.8401C60.9929 37.6215 61.7009 36.7856 62.7335 36.7856C63.2563 36.7856 63.6463 36.9798 63.9473 37.3926H64.0212L64.1528 35.0627C62.7891 35.1366 61.9875 35.5428 60.9936 36.6672ZM55.6207 44.1919V39.659L55.6142 38.9218C55.5893 35.9719 54.6903 34.9345 52.1586 34.9345C51.109 34.9345 50.0902 35.1863 48.7554 35.7737L48.3431 37.7974H48.6055C49.4274 36.5324 50.4246 35.8685 51.5003 35.8685C52.5139 35.8685 53.2402 36.5952 53.2402 37.6123C53.2402 38.651 52.5911 39.2705 50.6359 40.0959C47.7653 41.3073 46.9101 42.155 46.9101 43.7929C46.9101 45.4268 48.1187 46.597 49.8062 46.597C50.8695 46.597 52.2424 46.0488 53.3777 45.171V46.4393H56.2757V46.3641C55.7667 45.9481 55.6207 45.4654 55.6207 44.1919ZM53.3534 42.8183C53.3534 44.3515 52.5067 45.275 51.1005 45.275C50.066 45.275 49.286 44.46 49.286 43.3814C49.286 42.2597 49.8147 41.654 51.6548 40.6696C52.5198 40.2071 52.794 40.0305 53.3534 39.5772V42.8183Z" fill="#90949B"/>
<path fill-rule="evenodd" clip-rule="evenodd" d="M90.1739 34.8324C86.7078 34.8324 84.0597 37.4142 84.0597 40.7972C84.0597 44.1645 86.7215 46.8103 90.1084 46.8103C93.4862 46.8103 96.0538 44.2155 96.0538 40.8044C96.0545 37.4619 93.4652 34.8324 90.1739 34.8324ZM90.2622 45.8782C88.1559 45.8782 86.6836 43.6157 86.6836 40.3812C86.6836 37.6202 87.987 35.7678 89.9311 35.7678C92.0309 35.7678 93.424 37.9885 93.424 41.3368C93.424 44.1226 92.2023 45.8782 90.2622 45.8782ZM103.431 34.9436C101.923 34.9436 100.847 35.4532 99.9203 36.6057V35.2007H96.9908V35.2759C97.4371 35.6671 97.5837 36.1956 97.5837 37.3978V52.3289C97.5837 53.6195 97.4633 54.0191 96.928 54.5018V54.5758H100.583V54.5018C100.062 54.078 99.9262 53.641 99.9262 52.3786V52.0477L99.9197 45.9475C100.772 46.478 101.499 46.686 102.49 46.686C105.612 46.686 108.108 43.8394 108.108 40.2791C108.109 37.1447 106.178 34.9436 103.431 34.9436ZM102.36 45.7186C100.781 45.7186 99.972 44.8539 99.9399 43.1303L99.9269 42.456L99.9203 42.2506V39.472C99.9203 37.2284 100.746 36.1531 102.464 36.1531C104.373 36.1531 105.654 38.0656 105.654 40.9208C105.654 43.8341 104.36 45.7186 102.36 45.7186ZM0.881402 59.8118C0.881402 58.486 0.881402 58.242 0.864389 57.962C0.846721 57.6657 0.776707 57.5264 0.488796 57.4649C0.376452 57.4456 0.262511 57.437 0.148536 57.4394C0.0523477 57.4394 0 57.4217 0 57.3602C0 57.2988 0.0608541 57.2824 0.191723 57.2824C0.654344 57.2824 1.20399 57.3079 1.44806 57.3079C1.80599 57.3079 2.3118 57.2824 2.71357 57.2824C3.80436 57.2824 4.19696 57.6494 4.33634 57.7795C4.52872 57.962 4.77279 58.3558 4.77279 58.8182C4.77279 60.0564 3.86521 60.929 2.62588 60.929C2.5827 60.929 2.48651 60.929 2.44267 60.9199C2.39948 60.9107 2.33797 60.9022 2.33797 60.842C2.33797 60.772 2.39948 60.7465 2.5827 60.7465C3.07149 60.7465 3.75201 60.1958 3.75201 59.3069C3.75201 59.0197 3.72584 58.4343 3.23704 57.9987C2.99904 57.7802 2.68791 57.6586 2.3648 57.6579C2.23393 57.6579 2.10306 57.667 2.02454 57.6938C1.9807 57.7102 1.95518 57.7625 1.95518 57.8587V61.3489C1.95518 62.1515 1.95518 62.8396 1.99837 63.2157C2.02454 63.4597 2.07689 63.6514 2.33863 63.686C2.46099 63.7037 2.65271 63.722 2.78358 63.722C2.87911 63.722 2.92296 63.7475 2.92296 63.7907C2.92296 63.8522 2.8536 63.879 2.75741 63.879C2.18158 63.879 1.63193 63.8522 1.40488 63.8522C1.20399 63.8522 0.654998 63.879 0.305579 63.879C0.192377 63.879 0.130869 63.8522 0.130869 63.7907C0.130869 63.7475 0.166204 63.722 0.270899 63.722C0.401768 63.722 0.506462 63.7044 0.584984 63.686C0.759039 63.6514 0.802881 63.4597 0.837561 63.2072C0.880748 62.8403 0.880748 62.1522 0.880748 61.3496L0.881402 59.8118ZM10.4388 59.8118C10.4388 58.486 10.4388 58.242 10.4211 57.962C10.4041 57.6657 10.3341 57.5264 10.0461 57.4649C9.93381 57.4455 9.81986 57.437 9.70589 57.4394C9.6097 57.4394 9.5567 57.4217 9.5567 57.3602C9.5567 57.2988 9.61821 57.2824 9.74907 57.2824C10.2117 57.2824 10.7613 57.3079 10.9446 57.3079C11.2416 57.3079 11.9045 57.2824 12.1754 57.2824C12.725 57.2824 13.3094 57.3347 13.7811 57.6566C14.0259 57.8227 14.3746 58.2675 14.3746 58.8523C14.3746 59.4972 14.1037 60.0905 13.223 60.8054C13.9997 61.7826 14.6017 62.5597 15.1167 63.1C15.6055 63.6056 15.9627 63.6671 16.0942 63.6926C16.1904 63.7102 16.269 63.7194 16.3383 63.7194C16.4083 63.7194 16.443 63.7449 16.443 63.7881C16.443 63.8581 16.3822 63.8764 16.2775 63.8764H15.4478C14.9596 63.8764 14.7411 63.8332 14.514 63.7102C14.1391 63.5094 13.8073 63.0993 13.3185 62.4276C12.9698 61.9488 12.5686 61.3542 12.4548 61.224C12.4116 61.1717 12.3593 61.1625 12.2977 61.1625L11.5381 61.1462C11.4949 61.1462 11.4687 61.1625 11.4687 61.2149V61.3378C11.4687 62.1489 11.4687 62.8377 11.5125 63.2046C11.5387 63.4578 11.5911 63.6494 11.8528 63.6834C11.9837 63.7011 12.176 63.7194 12.2801 63.7194C12.3501 63.7194 12.3848 63.7449 12.3848 63.7881C12.3848 63.8496 12.3239 63.8764 12.2101 63.8764C11.7043 63.8764 11.0584 63.8496 10.9275 63.8496C10.762 63.8496 10.2123 63.8764 9.86293 63.8764C9.74973 63.8764 9.68822 63.8496 9.68822 63.7881C9.68822 63.7449 9.7229 63.7194 9.82825 63.7194C9.95912 63.7194 10.0638 63.7017 10.1417 63.6834C10.3164 63.6488 10.3602 63.4571 10.3949 63.2046C10.4381 62.8377 10.4381 62.1496 10.4381 61.347L10.4388 59.8118ZM11.4687 60.5006C11.4687 60.5974 11.4857 60.632 11.5472 60.6576C11.7311 60.719 11.9922 60.7459 12.2107 60.7459C12.5601 60.7459 12.6733 60.7099 12.8304 60.5974C13.0921 60.4044 13.3453 60.0035 13.3453 59.2879C13.3453 58.0497 12.5248 57.6925 12.0098 57.6925C11.7919 57.6925 11.6349 57.7004 11.5472 57.7272C11.4864 57.7449 11.4687 57.7795 11.4687 57.8502V60.5006ZM19.8764 60.5797C19.8764 59.0877 20.8625 57.1594 23.4798 57.1594C25.6529 57.1594 27.0054 58.4245 27.0054 60.4221C27.0054 62.4197 25.6091 63.998 23.3928 63.998C20.8886 63.9987 19.8764 62.1234 19.8764 60.5797ZM25.7844 60.7459C25.7844 58.7914 24.659 57.5787 23.2273 57.5787C22.2235 57.5787 21.081 58.1373 21.081 60.3089C21.081 62.1227 22.0841 63.5631 23.7599 63.5631C24.3704 63.5631 25.7844 63.2668 25.7844 60.7459ZM33.7733 61.3476C33.7733 62.1842 33.7733 62.8383 33.8172 63.2053C33.8433 63.4584 33.8957 63.6501 34.1574 63.6841C34.2804 63.7017 34.4715 63.7201 34.5939 63.7201C34.7077 63.7201 34.7431 63.7456 34.7431 63.7887C34.7431 63.8502 34.6816 63.877 34.5507 63.877C34.001 63.877 33.4507 63.8502 33.2243 63.8502C32.9979 63.8502 32.4476 63.877 32.1165 63.877C31.9942 63.877 31.9333 63.8594 31.9333 63.7887C31.9333 63.7456 31.9686 63.7201 32.0642 63.7201C32.195 63.7201 32.2997 63.7024 32.3783 63.6841C32.553 63.6494 32.5962 63.4578 32.6315 63.2053C32.6753 62.8383 32.6753 62.1842 32.6753 61.3476V59.8118C32.6753 58.486 32.6753 58.242 32.6583 57.962C32.6407 57.6657 32.5706 57.5264 32.2827 57.4649C32.1704 57.4456 32.0564 57.437 31.9425 57.4394C31.8548 57.4394 31.7939 57.4217 31.7939 57.3694C31.7939 57.2994 31.8633 57.2824 31.9948 57.2824C32.4483 57.2824 32.9979 57.3079 33.2512 57.3079C33.5829 57.3079 35.3542 57.3079 35.5551 57.2988C35.7206 57.2909 35.8253 57.2909 35.913 57.2641C35.9654 57.2464 36.0086 57.2118 36.0524 57.2118C36.0877 57.2118 36.1133 57.2464 36.1133 57.2909C36.1133 57.3511 36.0694 57.4557 36.0439 57.6834C36.0347 57.7704 36.0171 58.2851 36 58.3898C35.9915 58.4598 35.9739 58.5115 35.913 58.5115C35.8522 58.5115 35.8345 58.4683 35.8253 58.3721C35.8253 58.3035 35.8253 58.1628 35.773 58.0412C35.7115 57.9182 35.5283 57.788 35.1972 57.7795L33.8531 57.754C33.8008 57.754 33.7746 57.7795 33.7746 57.8757V60.0564C33.7746 60.1088 33.7831 60.1343 33.8355 60.1343L34.9524 60.1264C35.101 60.1264 35.2233 60.1264 35.3457 60.1173C35.5113 60.1081 35.6336 60.0741 35.7206 59.9603C35.7638 59.908 35.7815 59.8733 35.8339 59.8733C35.8692 59.8733 35.8862 59.8988 35.8862 59.9511C35.8862 60.0035 35.8424 60.2219 35.8162 60.4927C35.7992 60.6667 35.7815 61.0677 35.7815 61.1292C35.7815 61.2083 35.7815 61.2953 35.6945 61.2953C35.6421 61.2953 35.6251 61.2338 35.6251 61.1723C35.6251 61.1109 35.6074 61.0062 35.5728 60.9015C35.5289 60.7799 35.3981 60.6229 35.1272 60.5882C34.9093 60.5614 33.984 60.5614 33.8355 60.5614C33.7923 60.5614 33.7746 60.5791 33.7746 60.6406L33.7733 61.3476ZM41.9435 59.8118C41.9435 58.486 41.9435 58.242 41.9258 57.962C41.9088 57.6657 41.8388 57.5264 41.5502 57.4649C41.4379 57.4455 41.3239 57.437 41.2099 57.4394C41.1144 57.4394 41.0614 57.4217 41.0614 57.3602C41.0614 57.2988 41.1229 57.2824 41.2531 57.2824C41.7158 57.2824 42.2654 57.3079 42.5095 57.3079C42.7889 57.3079 44.5255 57.3079 44.6911 57.2988C44.8566 57.2824 44.9966 57.2641 45.0666 57.2464C45.1098 57.2386 45.1622 57.2118 45.206 57.2118C45.2492 57.2118 45.2584 57.2464 45.2584 57.2909C45.2584 57.3511 45.2145 57.4557 45.1884 57.8567C45.1799 57.945 45.1622 58.3283 45.1445 58.433C45.136 58.4761 45.1183 58.5285 45.0575 58.5285C44.996 58.5285 44.979 58.4853 44.979 58.4068C44.979 58.3453 44.9698 58.1975 44.9266 58.0928C44.8651 57.9359 44.7781 57.8312 44.3416 57.7789C44.1931 57.7612 43.277 57.7442 43.1023 57.7442C43.0591 57.7442 43.0415 57.7697 43.0415 57.8312V60.0388C43.0415 60.099 43.0506 60.1336 43.1023 60.1336C43.294 60.1336 44.2978 60.1336 44.4987 60.1173C44.7081 60.0996 44.8396 60.0741 44.9175 59.9871C44.979 59.9171 45.013 59.8733 45.0575 59.8733C45.0922 59.8733 45.1183 59.8897 45.1183 59.942C45.1183 59.9943 45.0751 60.1336 45.049 60.5797C45.032 60.7537 45.0136 61.1037 45.0136 61.1638C45.0136 61.2338 45.0136 61.33 44.9351 61.33C44.8743 61.33 44.8566 61.2953 44.8566 61.2508C44.8481 61.1638 44.8481 61.0513 44.8219 60.9375C44.7781 60.7622 44.6564 60.6321 44.3331 60.5974C44.1676 60.5797 43.3038 60.5706 43.0938 60.5706C43.0506 60.5706 43.0415 60.6052 43.0415 60.6576V61.3476C43.0415 61.6439 43.0329 62.4465 43.0415 62.699C43.0591 63.3008 43.1985 63.4323 44.0891 63.4323C44.3161 63.4323 44.6825 63.4322 44.909 63.3276C45.136 63.2229 45.2407 63.0391 45.3022 62.6813C45.3199 62.5858 45.3369 62.5512 45.3984 62.5512C45.4678 62.5512 45.4678 62.6199 45.4678 62.7082C45.4678 62.909 45.3984 63.5016 45.3546 63.6762C45.2937 63.9025 45.2152 63.9025 44.8834 63.9025C43.5656 63.9025 42.9806 63.8502 42.4663 63.8502C42.2654 63.8502 41.7158 63.877 41.3663 63.877C41.2531 63.877 41.1916 63.8502 41.1916 63.7887C41.1916 63.7456 41.2263 63.7201 41.331 63.7201C41.4619 63.7201 41.5666 63.7024 41.6451 63.6841C41.8198 63.6494 41.863 63.4578 41.8983 63.2053C41.9422 62.8383 41.9422 62.1502 41.9422 61.3476L41.9435 59.8118ZM50.8209 63.7724C50.6816 63.7109 50.6554 63.6677 50.6554 63.4761C50.6554 62.996 50.6907 62.472 50.6986 62.3327C50.7077 62.2025 50.7339 62.1064 50.8033 62.1064C50.8818 62.1064 50.8903 62.1842 50.8903 62.2549C50.8903 62.3674 50.9256 62.5512 50.9688 62.6997C51.1606 63.3446 51.6755 63.5814 52.2167 63.5814C53.0025 63.5814 53.386 63.049 53.386 62.5865C53.386 62.16 53.2558 61.7499 52.5308 61.1913L52.1296 60.8773C51.1697 60.1277 50.838 59.5168 50.838 58.8104C50.838 57.8508 51.6408 57.1614 52.854 57.1614C53.246 57.1566 53.6367 57.2066 54.0148 57.3099C54.094 57.3275 54.1372 57.3531 54.1372 57.4145C54.1372 57.5284 54.1018 57.7815 54.1018 58.4624C54.1018 58.6541 54.0757 58.7227 54.0063 58.7227C53.9448 58.7227 53.9186 58.6704 53.9186 58.5658C53.9186 58.4879 53.8754 58.2171 53.6916 57.9908C53.5607 57.8247 53.3075 57.563 52.7408 57.563C52.095 57.563 51.7023 57.9385 51.7023 58.4624C51.7023 58.8634 51.9032 59.1688 52.6276 59.7183L52.8723 59.9008C53.9193 60.7118 54.3034 61.2973 54.3034 62.1247C54.3034 62.6303 54.1116 63.2334 53.4835 63.6435C53.047 63.9222 52.5582 64 52.0956 64C51.5885 63.9987 51.1965 63.9385 50.8209 63.7724ZM59.741 63.7724C59.6016 63.7109 59.5748 63.6677 59.5748 63.4761C59.5748 62.996 59.6108 62.472 59.6193 62.3327C59.6271 62.2025 59.6539 62.1064 59.724 62.1064C59.8018 62.1064 59.811 62.1842 59.811 62.2549C59.811 62.3674 59.8457 62.5512 59.8889 62.6997C60.0806 63.3446 60.5955 63.5814 61.1373 63.5814C61.9219 63.5814 62.3067 63.049 62.3067 62.5865C62.3067 62.16 62.1751 61.7499 61.4514 61.1913L61.049 60.8773C60.0891 60.1277 59.758 59.5168 59.758 58.8104C59.758 57.8508 60.5609 57.1614 61.7734 57.1614C62.3407 57.1614 62.7078 57.2484 62.9335 57.3099C63.0127 57.3275 63.0565 57.3531 63.0565 57.4145C63.0565 57.5284 63.0219 57.7815 63.0219 58.4624C63.0219 58.6541 62.995 58.7227 62.925 58.7227C62.8648 58.7227 62.838 58.6704 62.838 58.5658C62.838 58.4879 62.7948 58.2171 62.6103 57.9908C62.4801 57.8247 62.2268 57.563 61.6595 57.563C61.0143 57.563 60.6217 57.9385 60.6217 58.4624C60.6217 58.8634 60.8226 59.1688 61.5457 59.7183L61.791 59.9008C62.838 60.7118 63.2227 61.2973 63.2227 62.1247C63.2227 62.6303 63.0297 63.2334 62.4022 63.6435C61.9651 63.9222 61.4769 64 61.0143 64C60.5092 63.9987 60.1166 63.9385 59.741 63.7724ZM69.1406 59.8118C69.1406 58.486 69.1406 58.242 69.1243 57.962C69.1066 57.6657 69.0196 57.5172 68.8279 57.4741C68.7251 57.4488 68.6195 57.4372 68.5138 57.4394C68.4267 57.4394 68.3744 57.4217 68.3744 57.3511C68.3744 57.2988 68.4431 57.2824 68.5825 57.2824C68.9149 57.2824 69.4645 57.3079 69.7171 57.3079C69.9357 57.3079 70.4506 57.2824 70.7817 57.2824C70.8956 57.2824 70.9643 57.2988 70.9643 57.3511C70.9643 57.4211 70.9132 57.4394 70.8249 57.4394C70.7379 57.4394 70.6679 57.4472 70.5645 57.4649C70.3283 57.5081 70.2576 57.6566 70.2412 57.962C70.2236 58.242 70.2236 58.486 70.2236 59.8118V61.3476C70.2236 62.1934 70.2236 62.8822 70.2582 63.2576C70.2851 63.4924 70.3466 63.6501 70.607 63.6841C70.73 63.7017 70.9211 63.7201 71.0533 63.7201C71.1488 63.7201 71.1926 63.7456 71.1926 63.7887C71.1926 63.8502 71.1226 63.877 71.0264 63.877C70.4513 63.877 69.9016 63.8502 69.6654 63.8502C69.4645 63.8502 68.9155 63.877 68.5661 63.877C68.4523 63.877 68.3907 63.8502 68.3907 63.7887C68.3907 63.7456 68.4267 63.7201 68.5301 63.7201C68.6616 63.7201 68.7663 63.7024 68.8442 63.6841C69.0196 63.6494 69.0719 63.5016 69.0974 63.2484C69.1406 62.8815 69.1406 62.1934 69.1406 61.3476V59.8118ZM75.8908 60.5797C75.8908 59.0877 76.8763 57.1594 79.495 57.1594C81.6674 57.1594 83.0212 58.4245 83.0212 60.4221C83.0212 62.4197 81.6242 63.998 79.4086 63.998C76.9031 63.9987 75.8908 62.1234 75.8908 60.5797ZM81.7996 60.7459C81.7996 58.7914 80.6734 57.5787 79.2424 57.5787C78.2393 57.5787 77.0955 58.1373 77.0955 60.3089C77.0955 62.1227 78.0986 63.5631 79.7744 63.5631C80.3849 63.5631 81.7996 63.2668 81.7996 60.7459ZM89.2198 62.6905C89.2375 63.3714 89.3514 63.5977 89.5254 63.6586C89.6739 63.7109 89.8395 63.7201 89.9789 63.7201C90.0757 63.7201 90.1287 63.7377 90.1287 63.7887C90.1287 63.8587 90.0495 63.877 89.9265 63.877C89.3592 63.877 89.0104 63.8502 88.8455 63.8502C88.7664 63.8502 88.3561 63.877 87.9026 63.877C87.7901 63.877 87.7109 63.8679 87.7109 63.7887C87.7109 63.7377 87.7633 63.7201 87.8503 63.7201C87.9641 63.7201 88.1212 63.7109 88.2442 63.6769C88.4706 63.6069 88.5046 63.3538 88.5138 62.595L88.593 57.4309C88.593 57.2556 88.6185 57.1346 88.7055 57.1346C88.8024 57.1346 88.8809 57.2471 89.0288 57.4041C89.1335 57.5179 90.4605 58.9399 91.7345 60.2043C92.3273 60.7969 93.5058 62.0541 93.6543 62.1934H93.6975L93.6105 58.2766C93.6013 57.7455 93.5234 57.5794 93.314 57.4924C93.1825 57.4401 92.9738 57.4401 92.8514 57.4401C92.7467 57.4401 92.7121 57.4132 92.7121 57.3609C92.7121 57.2922 92.8076 57.2831 92.9385 57.2831C93.3919 57.2831 93.8114 57.3086 93.9952 57.3086C94.0901 57.3086 94.4219 57.2831 94.8492 57.2831C94.963 57.2831 95.0513 57.2922 95.0513 57.3609C95.0513 57.4132 94.999 57.4401 94.8943 57.4401C94.806 57.4401 94.7373 57.4401 94.6326 57.4656C94.3885 57.5356 94.3185 57.7187 94.3093 58.208L94.2138 63.7116C94.2138 63.9032 94.1791 63.9823 94.0999 63.9823C94.0044 63.9823 93.899 63.8869 93.8035 63.7894C93.2539 63.2668 92.1369 62.1234 91.2293 61.2253C90.2772 60.2841 89.3095 59.193 89.1524 59.0269H89.1256L89.2198 62.6905ZM101.187 61.6008C101.144 61.6008 101.126 61.6171 101.109 61.6695L100.637 62.9175C100.55 63.1346 100.506 63.3439 100.506 63.4486C100.506 63.6056 100.585 63.7194 100.856 63.7194H100.986C101.091 63.7194 101.116 63.7371 101.116 63.7881C101.116 63.8581 101.064 63.8764 100.968 63.8764C100.689 63.8764 100.314 63.8496 100.044 63.8496C99.9471 63.8496 99.4675 63.8764 99.0141 63.8764C98.9002 63.8764 98.8478 63.8587 98.8478 63.7881C98.8478 63.7371 98.8825 63.7194 98.9525 63.7194C99.0304 63.7194 99.1534 63.7102 99.2234 63.7017C99.6246 63.6494 99.7894 63.3531 99.9648 62.9175L102.156 57.4394C102.26 57.1863 102.313 57.0908 102.4 57.0908C102.479 57.0908 102.531 57.1686 102.618 57.3694C102.828 57.8495 104.223 61.4078 104.782 62.7337C105.114 63.5193 105.368 63.6422 105.55 63.6841C105.682 63.7109 105.812 63.7201 105.917 63.7201C105.987 63.7201 106.031 63.7292 106.031 63.7887C106.031 63.8587 105.952 63.877 105.63 63.877C105.316 63.877 104.678 63.877 103.981 63.8594C103.823 63.8502 103.719 63.8502 103.719 63.7894C103.719 63.7384 103.755 63.7207 103.842 63.7116C103.903 63.6939 103.964 63.616 103.92 63.5107L103.222 61.6623C103.204 61.6178 103.179 61.6008 103.135 61.6008H101.187ZM102.967 61.1638C103.01 61.1638 103.019 61.1383 103.01 61.1115L102.226 58.9576C102.216 58.9216 102.208 58.8784 102.181 58.8784C102.156 58.8784 102.138 58.9216 102.129 58.9576L101.326 61.1037C101.317 61.1383 101.326 61.1638 101.362 61.1638H102.967ZM111.88 61.3476C111.88 62.4629 111.88 63.066 112.064 63.2229C112.212 63.3531 112.438 63.4146 113.119 63.4146C113.582 63.4146 113.922 63.4054 114.141 63.1706C114.245 63.0568 114.35 62.8128 114.367 62.6467C114.376 62.5688 114.394 62.5165 114.464 62.5165C114.524 62.5165 114.532 62.5597 114.532 62.665C114.532 62.7605 114.471 63.4146 114.402 63.6677C114.35 63.8594 114.305 63.9025 113.851 63.9025C112.595 63.9025 112.02 63.8502 111.312 63.8502C111.111 63.8502 110.562 63.877 110.213 63.877C110.099 63.877 110.037 63.8502 110.037 63.7887C110.037 63.7456 110.073 63.7201 110.178 63.7201C110.284 63.7202 110.389 63.7081 110.492 63.6841C110.666 63.6494 110.709 63.4578 110.745 63.2053C110.788 62.8383 110.788 62.1502 110.788 61.3476V59.8118C110.788 58.486 110.788 58.242 110.771 57.962C110.753 57.6657 110.684 57.5264 110.395 57.4649C110.301 57.4456 110.204 57.437 110.108 57.4394C110.012 57.4394 109.959 57.4217 109.959 57.3602C109.959 57.2988 110.021 57.2824 110.151 57.2824C110.561 57.2824 111.111 57.3079 111.347 57.3079C111.557 57.3079 112.193 57.2824 112.533 57.2824C112.656 57.2824 112.717 57.2988 112.717 57.3602C112.717 57.4217 112.664 57.4394 112.56 57.4394C112.464 57.4394 112.323 57.4472 112.219 57.4649C111.983 57.5081 111.912 57.6566 111.896 57.962C111.878 58.242 111.878 58.486 111.878 59.8118L111.88 61.3476Z" fill="#90949B"/>
</svg>
