<svg width="161" height="64" viewBox="0 0 161 64" fill="none" xmlns="http://www.w3.org/2000/svg">
<path fill-rule="evenodd" clip-rule="evenodd" d="M95.4047 1.55944C92.7147 2.42496 90.3435 3.28724 90.1354 3.47547C89.5262 4.02627 88.9872 5.33736 88.9872 6.26802C88.9872 6.82072 89.3983 8.34244 90.1348 10.5156C90.766 12.3781 91.247 13.9942 91.2037 14.107C91.1604 14.2199 90.7508 14.4123 90.2937 14.5346C88.3251 15.0611 87.3778 16.2567 87.5386 18.0122C87.5913 18.5867 89.1271 24.1422 90.9515 30.3577C92.776 36.5732 95.5688 46.103 97.1578 51.535C98.7467 56.967 100.17 61.7075 100.321 62.0691C100.867 63.3781 101.828 64.0186 103.22 63.9996C103.953 63.9895 111.338 61.9802 112.945 61.3533C114.359 60.8019 115.198 59.3531 114.93 57.9252C114.83 57.3947 105.734 26.1487 102.758 16.1178C102.064 13.7773 101.753 13.2183 100.773 12.5517C99.9194 11.9713 99.0253 12.0047 96.5346 12.7097C95.3973 13.0316 94.4451 13.2666 94.4189 13.232C94.2321 12.9861 92.4083 6.94037 92.4083 6.56735C92.4083 5.61656 93.0206 5.197 95.9656 4.12978C99.1591 2.97253 100.299 2.83179 100.98 3.51155C101.246 3.77803 103.232 9.06475 106.679 18.6863C110.045 28.0793 112.121 33.6129 112.386 33.8942C113.072 34.6241 114.285 34.9837 115.643 34.8593C116.579 34.7736 123.284 32.7387 125.111 31.986C125.343 31.8904 125.569 32.2335 126.13 33.532C126.527 34.45 126.869 35.2205 126.89 35.2442C126.91 35.2682 133.764 32.8916 142.12 29.9628C150.476 27.0343 158.083 24.3724 159.024 24.0476C159.964 23.7229 160.763 23.4353 160.798 23.4087C160.899 23.3329 155.804 11.7775 155.698 11.8389C155.613 11.8877 151.089 13.569 135.171 19.4676C132.506 20.4555 128.475 21.9504 126.213 22.7899L122.101 24.316L123.143 26.686C123.715 27.9893 124.154 29.0857 124.117 29.1226C123.82 29.4193 116.807 31.929 116.047 32.0107C115.135 32.1087 115.029 32.0743 114.402 31.4739C113.806 30.9032 113.529 30.2356 111.891 25.4195C109.957 19.7315 105.116 5.56072 104.176 2.83445C103.592 1.14236 103.273 0.662781 102.444 0.234297C101.496 -0.255535 100.411 -0.0513593 95.4047 1.55944ZM7.64246 28.7433V35.4858H4.48275H1.32303L1.44182 36.0794C1.5072 36.4059 1.56061 36.9187 1.56061 37.219V37.765H42.692H83.8236L86.8652 46.8817L89.9067 55.9984H61.9836H34.0605V57.4229V58.8473H47.4596H60.8587V59.702V60.5567H78.1667C94.5622 60.5567 95.4695 60.5392 95.3741 60.2243C94.0124 55.726 84.2972 24.029 84.0224 23.1878L83.6346 22.0007H45.6385H7.64246V28.7433ZM49.6848 23.7246C50.5889 23.9629 51.8665 24.9382 52.5351 25.9002C53.2968 26.9965 53.7066 28.8157 53.5776 30.5275C53.2982 34.2302 50.7261 36.4746 47.089 36.1897C45.3919 36.0566 44.5207 35.6853 43.3597 34.6C42.107 33.4289 41.618 32.1385 41.6081 29.9778C41.5993 28.0406 41.8443 27.0869 42.6633 25.8704C44.1085 23.7234 46.6895 22.9346 49.6848 23.7246ZM39.002 24.5648V25.6094H38.3792C37.4519 25.6094 37.0115 26.0296 36.4427 27.4565C36.1606 28.1642 35.7562 28.9298 35.5441 29.1579L35.1585 29.5725L35.8172 30.1503C36.4214 30.6806 39.002 35.2942 39.002 35.8444C39.002 35.9819 38.4693 36.0556 37.4768 36.0556C36.0268 36.0556 35.9428 36.0323 35.7718 35.5831C35.3354 34.4359 33.6276 31.1906 33.3468 30.975C32.6109 30.4099 32.54 30.6227 32.54 33.3966V36.0556H31.2096H29.8792V29.8829V23.7101H31.2043H32.5294L32.5822 26.2681L32.6351 28.8263L33.1102 28.5895C33.4407 28.4246 33.7901 27.8744 34.258 26.7817C35.3835 24.1532 36.0654 23.5916 38.1943 23.5398L39.002 23.5202V24.5648ZM13.7243 28.7433V33.7765H15.3398H16.9553V28.7433V23.7101H18.2857H19.6161V28.7433V33.7765H21.3266H23.0371V28.7433V23.7101H24.3676H25.698V29.8829V36.0556H18.3807H11.0635V29.8829V23.7101H12.3939H13.7243V28.7433ZM66.7505 29.8829V36.0556H65.4201H64.0897V31.0225V25.9893H62.3791H60.6686L60.6641 29.7404C60.6591 33.9238 60.5371 34.7538 59.8227 35.4682C59.3726 35.9185 59.1962 35.9607 57.7662 35.9607H56.2023V34.916V33.8714L56.96 33.8099C57.3768 33.7759 57.7816 33.6477 57.8599 33.525C57.938 33.4021 58.0032 31.1435 58.0049 28.5059L58.0078 23.7101H62.3791H66.7505V29.8829ZM79.6976 29.8654C81.0438 33.1985 82.1452 35.9548 82.1452 35.9907C82.1452 36.0264 81.4824 36.0547 80.6722 36.0535L79.1993 36.0515L78.6658 34.6291L78.1323 33.2067H75.8016H73.4711L72.9884 34.5837L72.5056 35.9607L71.0298 36.0165C69.8824 36.06 69.5759 36.0178 69.6515 35.8266C69.7051 35.6913 70.7512 33.0167 71.9763 29.8829C73.2012 26.749 74.2477 24.0748 74.3015 23.9399C74.372 23.7631 74.7962 23.7103 75.8246 23.75L77.25 23.8051L79.6976 29.8654ZM46.0756 26.1152C45.7325 26.2843 45.2933 26.6455 45.0994 26.9181C43.9988 28.4656 44.1106 31.6842 45.3089 32.959C45.9171 33.6061 47.2116 34.037 48.0691 33.8781C49.8416 33.5497 50.6261 32.4709 50.7523 30.1887C50.873 28.005 50.3504 26.7492 49.0371 26.0662C48.3521 25.7101 46.8476 25.735 46.0756 26.1152ZM75.1208 28.7036C74.7681 29.6656 74.4419 30.5596 74.3957 30.6901C74.3336 30.8665 74.6833 30.9275 75.7579 30.9275C76.5531 30.9275 77.2031 30.8633 77.2023 30.7851C77.201 30.6479 75.8803 27.0753 75.8008 26.9942C75.7795 26.9724 75.4734 27.7416 75.1208 28.7036ZM0.799995 47.404L0.800375 53.3393H1.94072H3.08107V51.0602V48.781L5.12419 48.7768C7.94997 48.7711 8.93656 48.3041 9.63085 46.6435C10.3073 45.0255 9.75229 42.9106 8.43671 42.0932C7.79318 41.6932 7.46171 41.651 4.26855 41.5636L0.799805 41.4687L0.799995 47.404ZM23.4169 47.404L23.4173 53.3393H24.4626H25.5079V48.686C25.5079 46.1267 25.5739 44.0327 25.6544 44.0327C25.7348 44.0327 26.3162 46.1054 26.9461 48.6386L28.0914 53.2444L29.2268 53.2998L30.3624 53.3553L31.4934 48.8365C32.1155 46.351 32.6909 44.2363 32.7723 44.1372C32.8536 44.0379 32.9202 46.0678 32.9202 48.648V53.3393H33.9655H35.0108V47.4515V41.5636H33.2505H31.49L30.4658 45.5047C29.9024 47.6724 29.3832 49.5126 29.3121 49.5943C29.1642 49.7643 29.089 49.5212 27.8739 44.9474L26.9818 41.5885L25.1991 41.5287L23.4165 41.4687L23.4169 47.404ZM40.6646 41.6341C38.5936 42.4035 37.424 44.1564 37.1718 46.8684C36.8494 50.3341 38.7067 53.0024 41.7997 53.5179C45.0441 54.0584 47.7971 52.4047 48.5201 49.4809C48.8086 48.3142 48.6461 45.507 48.2345 44.5509C47.8171 43.5811 46.7018 42.3826 45.762 41.8935C44.7733 41.379 41.7632 41.2259 40.6646 41.6341ZM12.2038 47.4515V53.3393H16.6702H21.1366V52.4847V51.63H17.8106H14.4845V49.8256V48.0213H17.5255H20.5664V47.1666V46.3119H17.5255H14.4845V44.7924V43.273H17.7155H20.9465V42.4183V41.5636H16.5752H12.2038V47.4515ZM50.9757 47.4515V53.3393H52.0157H53.0557L53.1085 50.7278L53.1613 48.1162H55.6321H58.1028L58.1557 50.7278L58.2085 53.3393H59.3435H60.4786V47.4515V41.5636H59.3382H58.1979V43.9378V46.3119H55.6321H53.0663V43.9378V41.5636H52.021H50.9757V47.4515ZM62.2841 42.4183V43.273H64.0421H65.8002V48.3062V53.3393H66.9373H68.0746L68.1252 48.3537L68.1759 43.368L69.9339 43.3133L71.692 43.2588V42.4111V41.5636H66.988H62.2841V42.4183ZM74.7808 47.117C73.6051 50.1736 72.5894 52.8284 72.5237 53.0166C72.4155 53.326 72.5178 53.3532 73.5918 53.3015L74.7795 53.2444L75.2529 51.9623L75.7263 50.6803H78.2244H80.7226L81.2175 51.9623L81.7122 53.2444L82.9595 53.3002L84.2069 53.3561L81.865 47.5073L79.5231 41.6586L78.2208 41.609L76.9186 41.5593L74.7808 47.117ZM6.77542 43.7226C7.78804 44.3858 7.84202 45.8194 6.88071 46.5267C6.52606 46.7877 6.00093 46.888 4.79159 46.9259L3.1761 46.9767L3.12136 45.1007L3.06682 43.2246L4.66919 43.3087C5.75404 43.3655 6.43426 43.4992 6.77542 43.7226ZM44.703 43.6753C46.1721 44.5003 46.8117 46.9381 46.1529 49.2025C45.2542 52.2921 41.3302 52.6702 39.9403 49.8009C39.04 47.9425 39.5108 44.8245 40.8311 43.8998C41.5923 43.3668 41.8082 43.3051 42.9674 43.288C43.6753 43.2776 44.2056 43.3959 44.703 43.6753ZM79.0814 46.3185C79.5121 47.4714 79.8645 48.4971 79.8645 48.5977C79.8645 48.702 79.1185 48.781 78.1336 48.781C76.7367 48.781 76.4223 48.7303 76.5039 48.5178C76.5593 48.373 76.9321 47.3485 77.3319 46.2411C77.7318 45.1334 78.1129 44.2263 78.1786 44.2249C78.2446 44.2236 78.6507 45.1659 79.0814 46.3185Z" fill="#90949B"/>
</svg>
