<svg width="101" height="64" viewBox="0 0 101 64" fill="none" xmlns="http://www.w3.org/2000/svg">
<path d="M50.7379 2.37115C50.6776 2.37115 50.62 2.38365 50.5667 2.4025C50.3979 2.35231 50.2563 2.28908 50.1384 2.21526L50.7379 1.77963L51.331 2.21045C51.2137 2.28519 51.0715 2.34941 50.9025 2.40023C50.8504 2.38302 50.7958 2.37115 50.7379 2.37115ZM49.568 0.929311L50.2701 1.43967L50.0407 2.14714C49.4776 1.72121 49.5456 1.06546 49.568 0.929311ZM51.8954 0.938913C51.918 1.09264 51.9705 1.72084 51.4323 2.1379L51.2058 1.43967L51.8954 0.938913ZM52.8349 17.376C52.8349 16.5193 52.3242 15.7833 51.5908 15.4522H51.5937C51.5563 15.4346 51.5193 15.4148 51.4802 15.3998C51.1856 15.2618 51.217 14.8537 51.217 14.8537C51.217 14.8537 51.217 14.8537 51.8293 13.3853C51.7081 13.0222 51.3352 12.8928 51.3352 12.8928V12.5336C51.3352 12.5336 51.6956 12.0223 51.586 11.3152C51.5697 11.2116 51.0428 4.12651 50.9821 3.35708C51.148 3.26912 51.262 3.09656 51.262 2.89555C51.262 2.83902 51.2511 2.78531 51.2339 2.73386C52.7643 1.91488 52.0162 0.561808 51.6841 0.392143C51.6224 0.353735 51.586 0.409988 51.626 0.451204C51.6787 0.49088 51.805 0.65801 51.8842 0.889726H51.0275L50.7379 0L50.4484 0.889726H49.5772C49.6562 0.65801 49.7824 0.49088 49.8345 0.451204C49.8748 0.409988 49.8386 0.353735 49.777 0.392143C49.4437 0.562443 48.6924 1.92185 50.2394 2.74092C50.2244 2.78984 50.2139 2.84129 50.2139 2.89555C50.2139 3.09085 50.3212 3.25889 50.4794 3.34902C50.4216 4.08375 49.8907 11.2113 49.8748 11.3152C49.7655 12.0223 50.126 12.5336 50.126 12.5336V12.8928C50.126 12.8928 49.7537 13.0222 49.6322 13.3853C50.2448 14.8537 50.2448 14.8537 50.2448 14.8537C50.2448 14.8537 50.2755 15.2618 49.9809 15.3998C49.9754 15.4021 49.97 15.4052 49.9643 15.4074C49.1739 15.713 48.6122 16.478 48.6122 17.376C48.6122 17.3769 48.6125 17.3779 48.6125 17.3792V19.0671H47.6858V21.7834H53.7616V19.0671H52.8349V17.376ZM52.0542 46.3259C52.3712 46.3355 52.6863 46.3466 53.0008 46.3618V22.8954H52.0542V46.3259ZM68.421 32.3373V49.7213C69.039 49.9699 69.6516 50.2294 70.2572 50.5026V32.3373H68.421ZM64.9396 32.3373H62.2841V47.7329C64.0762 48.181 65.8274 48.7323 67.5332 49.3767V30.7664H64.9396V32.3373ZM57.2554 46.7606C58.6027 46.9472 59.9324 47.1871 61.2417 47.4833V38.0873H57.2554V46.7606ZM53.9076 46.416C54.6762 46.4678 55.44 46.5378 56.198 46.6254V22.8954H53.9076V46.416ZM35.8467 30.7664H33.1589V49.6295C34.8678 48.9546 36.6241 48.3734 38.4223 47.8959V32.3373H35.8467V30.7664ZM39.5045 47.623C40.9043 47.2864 42.3299 47.0126 43.775 46.8024V38.0873H39.5045V47.623ZM30.4492 50.7969C31.0499 50.5154 31.6578 50.247 32.2716 49.9897V32.3373H30.4492V50.7969ZM50.2013 46.3109C50.3576 46.3093 50.513 46.3035 50.6695 46.3035C50.8293 46.3035 50.9878 46.3099 51.148 46.3109V22.8954H50.2013V46.3109ZM44.8292 36.9975H44.833V46.6618C45.6958 46.5557 46.5654 46.4751 47.4422 46.416V22.8954H44.8292V36.9975ZM48.3495 46.3618C48.6643 46.3466 48.9794 46.3355 49.2948 46.3259V22.8954H48.3495V46.3618Z" fill="#90949B"/>
<path d="M0.599609 56.8808H1.60519L2.9928 60.762H3.03347L4.3506 56.8808H5.35573V63.9197H4.3506V59.5152H4.3L3.24458 62.6928H2.71152L1.65549 59.5152H1.60519V63.9197H0.599609V56.8808Z" fill="#90949B"/>
<path d="M6.67362 56.8808H9.73074V57.8359H7.67937V63.9197H6.67362V56.8808Z" fill="#90949B"/>
<path d="M11.4186 56.8808L12.3841 60.329H12.414C12.4746 59.9478 12.5853 59.3039 12.676 58.8913L13.1182 56.8808H14.1544L12.9576 61.6871C12.7565 62.4716 12.6257 63.3659 12.0324 63.7282C11.7306 63.9093 11.4289 63.9197 11.1676 63.9197H10.8056V62.9641H11.0569C11.2578 62.9641 11.4289 62.894 11.5194 62.7931C11.5995 62.7128 11.69 62.5012 11.7205 62.3708L11.8519 61.7777L10.2727 56.8808H11.4186Z" fill="#90949B"/>
<path d="M17.7464 58.9319V61.7176L18.9836 59.5455V58.9319H19.9889V63.9198H18.9836V61.1343L17.7464 63.3061V63.9198H16.7411V58.9319H17.7464Z" fill="#90949B"/>
<path d="M23.1774 61.7176H23.1973L24.2632 58.9319H25.1886V63.9198H24.2434V61.0835L23.3986 63.2058H22.9762L22.1314 61.0835V63.9198H21.1862V58.9319H22.1114L23.1774 61.7176Z" fill="#90949B"/>
<path d="M28.3766 61.0238V60.3701C28.3766 60.2385 28.3569 60.0987 28.2359 59.9774C28.1554 59.8976 28.0247 59.8373 27.8636 59.8373C27.693 59.8373 27.5519 59.9069 27.4718 60.0081C27.3706 60.1284 27.3507 60.2794 27.3507 60.4104V61.0238H28.3766ZM27.3507 62.4409C27.3507 62.5919 27.3613 62.7533 27.4813 62.874C27.5625 62.9641 27.7029 63.0143 27.8636 63.0143C28.035 63.0143 28.1655 62.9545 28.266 62.8035C28.326 62.7026 28.3569 62.5725 28.3569 62.462H29.3619V62.5013C29.3619 62.874 29.2919 63.3659 28.799 63.7186C28.5477 63.8993 28.206 64 27.8636 64C27.4012 64 26.9687 63.8091 26.7071 63.518C26.3552 63.1248 26.3455 62.6119 26.3455 62.3105V60.3997C26.3455 60.0481 26.4158 59.5556 26.8382 59.1939C27.0694 58.9921 27.4111 58.8515 27.8335 58.8515C28.266 58.8515 28.6284 58.9921 28.879 59.2138C29.322 59.595 29.3825 60.0987 29.3825 60.4904V61.7974H27.3507V62.4409Z" fill="#90949B"/>
<path d="M30.4891 58.9319H31.4944V60.9433H32.5199V58.9319H33.5262V63.9198H32.5199V61.8483H31.4944V63.9198H30.4891V58.9319Z" fill="#90949B"/>
<path d="M35.7287 58.9319V61.7176L36.9647 59.5455V58.9319H37.9706V63.9198H36.9647V61.1343L35.7287 63.3061V63.9198H34.7224V58.9319H35.7287Z" fill="#90949B"/>
<path d="M41.6814 56.8808H42.6878L44.0749 60.762H44.1153L45.4323 56.8808H46.438V63.9197H45.4323V59.5152H45.3821L44.3262 62.6928H43.7933L42.7379 59.5152H42.6878V63.9197H41.6814V56.8808Z" fill="#90949B"/>
<path d="M47.6557 63.9197H48.7613V62.8131H47.6557V63.9197Z" fill="#90949B"/>
<path d="M51.085 63.0143H51.538C51.6886 63.0143 52.0105 62.9943 52.2213 62.7026C52.3922 62.4716 52.4014 62.1093 52.4014 61.989V61.6568C52.4014 61.3156 52.3523 61.0739 52.1302 60.883C51.97 60.7519 51.819 60.7023 51.5979 60.7023H51.085V63.0143ZM51.085 59.7962H51.5678C51.9092 59.7962 52.1108 59.6562 52.2111 59.5352C52.3314 59.3945 52.4014 59.1529 52.4014 58.9319V58.4999C52.4014 58.3187 52.3216 58.1374 52.2111 58.0165C52.0908 57.8963 51.8891 57.7859 51.5574 57.7859H51.085V59.7962ZM51.4366 56.8808C51.7387 56.8808 52.3216 56.9106 52.7639 57.2228C53.3975 57.6753 53.4084 58.4292 53.4084 58.8411C53.4084 59.3039 53.3674 59.6257 53.1069 59.9376C52.9753 60.0987 52.8242 60.1986 52.7235 60.2594C52.9958 60.3797 53.1165 60.5508 53.2066 60.7023C53.4084 61.0539 53.4084 61.2446 53.4084 61.5866V62.12C53.4084 62.4114 53.4084 63.1357 52.8038 63.5876C52.5832 63.7589 52.2111 63.9197 51.6081 63.9197H50.0787V56.8808H51.4366Z" fill="#90949B"/>
<path d="M54.5252 63.9197H55.6308V62.8131H54.5252V63.9197Z" fill="#90949B"/>
<path d="M62.1207 63.9197H61.1154V57.7859H60.3108L60.2806 58.7712C60.2407 59.9974 60.2304 60.5706 60.1901 61.124C60.1387 61.8682 60.08 62.2398 60.039 62.4312C59.9695 62.7731 59.8681 63.1049 59.5563 63.4472C59.1842 63.8496 58.7922 63.9197 58.379 63.9197H58.1494V62.9641H58.2599C58.3591 62.9641 58.5004 62.9545 58.6508 62.8637C58.893 62.7225 58.983 62.4716 59.0036 62.4011C59.1142 62.0495 59.1842 61.0238 59.2042 60.6715C59.2349 60.1188 59.2646 59.6765 59.2748 58.7712L59.3045 56.8808H62.1207V63.9197Z" fill="#90949B"/>
<path d="M65.3197 60.4806C65.3197 60.2493 65.2594 60.0789 65.1687 59.9774C65.0883 59.8976 64.9579 59.8373 64.8069 59.8373C64.6554 59.8373 64.5248 59.8976 64.4439 59.9774C64.3533 60.0789 64.2934 60.2493 64.2934 60.4806V62.3709C64.2934 62.6023 64.3533 62.7731 64.4439 62.874C64.5248 62.9545 64.6554 63.0143 64.8069 63.0143C64.9579 63.0143 65.0883 62.9545 65.1687 62.874C65.2594 62.7731 65.3197 62.6023 65.3197 62.3709V60.4806ZM63.2882 60.5411C63.2882 60.1484 63.3184 59.595 63.7811 59.2037C64.0524 58.9724 64.4348 58.8515 64.8069 58.8515C65.1785 58.8515 65.5608 58.9724 65.8326 59.2037C66.2954 59.595 66.325 60.1484 66.325 60.5411V62.3105C66.325 62.7026 66.2954 63.2554 65.8326 63.6484C65.5608 63.8786 65.1785 64 64.8069 64C64.4348 64 64.0524 63.8786 63.7811 63.6484C63.3184 63.2554 63.2882 62.7026 63.2882 62.3105V60.5411Z" fill="#90949B"/>
<path d="M69.4227 61.7176H69.4427L70.5088 58.9319H71.4337V63.9198H70.4879V61.0835L69.6433 63.2058H69.221L68.377 61.0835V63.9198H67.4317V58.9319H68.3555L69.4227 61.7176Z" fill="#90949B"/>
<path d="M74.5713 60.4806C74.5713 60.2493 74.5103 60.0789 74.4203 59.9774C74.3399 59.8976 74.2095 59.8373 74.0589 59.8373C73.908 59.8373 73.7775 59.8976 73.6971 59.9774C73.6059 60.0789 73.5462 60.2493 73.5462 60.4806V62.3709C73.5462 62.6023 73.6059 62.7731 73.6971 62.874C73.7775 62.9545 73.908 63.0143 74.0589 63.0143C74.2095 63.0143 74.3399 62.9545 74.4203 62.874C74.5103 62.7731 74.5713 62.6023 74.5713 62.3709V60.4806ZM72.5398 60.5411C72.5398 60.1484 72.571 59.595 73.0338 59.2037C73.3045 58.9724 73.6863 58.8515 74.0589 58.8515C74.4316 58.8515 74.8135 58.9724 75.0847 59.2037C75.5463 59.595 75.5777 60.1484 75.5777 60.5411V62.3105C75.5777 62.7026 75.5463 63.2554 75.0847 63.6484C74.8135 63.8786 74.4316 64 74.0589 64C73.6863 64 73.3045 63.8786 73.0338 63.6484C72.571 63.2554 72.5398 62.7026 72.5398 62.3105V60.5411Z" fill="#90949B"/>
<path d="M76.6837 58.9319H77.69V60.9433H78.7148V58.9319H79.7211V63.9198H78.7148V61.8483H77.69V63.9198H76.6837V58.9319Z" fill="#90949B"/>
<path d="M82.8583 60.4806C82.8583 60.2493 82.7979 60.0789 82.7077 59.9774C82.6269 59.8976 82.4965 59.8373 82.3459 59.8373C82.195 59.8373 82.0634 59.8976 81.983 59.9774C81.8923 60.0789 81.8326 60.2493 81.8326 60.4806V62.3709C81.8326 62.6023 81.8923 62.7731 81.983 62.874C82.0634 62.9545 82.195 63.0143 82.3459 63.0143C82.4965 63.0143 82.6269 62.9545 82.7077 62.874C82.7979 62.7731 82.8583 62.6023 82.8583 62.3709V60.4806ZM80.8268 60.5411C80.8268 60.1484 80.8569 59.595 81.3201 59.2037C81.5909 58.9724 81.9733 58.8515 82.3459 58.8515C82.718 58.8515 83.0994 58.9724 83.3712 59.2037C83.8338 59.595 83.864 60.1484 83.864 60.5411V62.3105C83.864 62.7026 83.8338 63.2554 83.3712 63.6484C83.0994 63.8786 82.718 64 82.3459 64C81.9733 64 81.5909 63.8786 81.3201 63.6484C80.8569 63.2554 80.8268 62.7026 80.8268 62.3105V60.5411Z" fill="#90949B"/>
<path d="M86.9811 60.4403V60.3701C86.9811 60.2493 86.9412 60.1188 86.871 60.0281C86.8009 59.9272 86.6694 59.8373 86.4687 59.8373C86.3484 59.8373 86.1969 59.867 86.0766 60.0081C85.9564 60.1484 85.9364 60.3199 85.9364 60.4904V62.421C85.9364 62.5623 85.966 62.7327 86.0561 62.8438C86.1068 62.9038 86.2271 63.0143 86.4687 63.0143C86.6202 63.0143 86.7605 62.9846 86.871 62.8438C86.9611 62.7327 86.9811 62.6222 86.9811 62.5117V62.4312H87.9868V62.5217C87.9868 63.115 87.7053 63.4672 87.4848 63.6577C87.2632 63.8389 86.932 64 86.4789 64C86.0264 64 85.5946 63.8496 85.3228 63.5671C84.9204 63.1554 84.93 62.6728 84.93 62.2399V60.5211C84.93 60.1188 84.9705 59.606 85.3928 59.2234C85.6042 59.0326 85.9364 58.8515 86.4288 58.8515C86.912 58.8515 87.3342 59.0127 87.5855 59.2839C87.8574 59.5655 87.9868 60.0179 87.9868 60.4104V60.4403H86.9811Z" fill="#90949B"/>
<path d="M90.8836 60.4806C90.8836 60.2493 90.8236 60.0789 90.733 59.9774C90.6532 59.8976 90.5222 59.8373 90.3711 59.8373C90.2201 59.8373 90.0891 59.8976 90.0088 59.9774C89.9186 60.0789 89.8583 60.2493 89.8583 60.4806V62.3709C89.8583 62.6023 89.9186 62.7731 90.0088 62.874C90.0891 62.9545 90.2201 63.0143 90.3711 63.0143C90.5222 63.0143 90.6532 62.9545 90.733 62.874C90.8236 62.7731 90.8836 62.6023 90.8836 62.3709V60.4806ZM88.8525 60.5411C88.8525 60.1484 88.8828 59.595 89.3454 59.2037C89.6172 58.9724 89.999 58.8515 90.3711 58.8515C90.7432 58.8515 91.1251 58.9724 91.3969 59.2037C91.8596 59.595 91.8893 60.1484 91.8893 60.5411V62.3105C91.8893 62.7026 91.8596 63.2554 91.3969 63.6484C91.1251 63.8786 90.7432 64 90.3711 64C89.999 64 89.6172 63.8786 89.3454 63.6484C88.8828 63.2554 88.8525 62.7026 88.8525 62.3105V60.5411Z" fill="#90949B"/>
<path d="M94.0017 63.0143H94.4638C94.5954 63.0143 94.7767 62.9943 94.8964 62.8438C94.9972 62.7327 95.0074 62.6023 95.0074 62.4916V62.3105C95.0074 62.1999 94.9875 62.0495 94.8873 61.9388C94.7659 61.8084 94.6057 61.7878 94.4638 61.7878H94.0017V63.0143ZM94.0017 60.9832H94.444C94.5955 60.9832 94.726 60.973 94.8463 60.8226C94.9579 60.6916 94.9675 60.5412 94.9675 60.4202V60.3199C94.9675 60.0987 94.8668 59.9884 94.8463 59.9683C94.7362 59.847 94.575 59.8373 94.444 59.8373H94.0017V60.9832ZM94.6554 58.9319C95.0776 58.9319 95.4303 59.0828 95.6417 59.2942C95.8617 59.5252 95.9724 59.8869 95.9724 60.1588V60.3997C95.9724 60.6118 95.9432 60.8927 95.7317 61.1343C95.6805 61.1942 95.5506 61.3156 95.3392 61.3856C95.4599 61.4261 95.6417 61.5058 95.8019 61.7176C95.9724 61.9482 96.0127 62.2102 96.0127 62.4312V62.6627C96.0127 63.1248 95.7917 63.4365 95.6099 63.5978C95.2896 63.8896 94.8964 63.9198 94.5248 63.9198H92.9964V58.9319H94.6554Z" fill="#90949B"/>
<path d="M99.1001 61.747C98.9804 61.727 98.8594 61.7176 98.7489 61.7176C98.5876 61.7176 98.3472 61.7377 98.1854 61.9286C98.0553 62.0792 98.0349 62.2904 98.0349 62.4519C98.0349 62.5919 98.0553 62.7327 98.1353 62.8637C98.2366 63.025 98.3672 63.0952 98.5364 63.0952C98.8396 63.0952 99.1001 62.894 99.1001 62.4519V61.747ZM99.1001 63.4273H99.08C99.01 63.5377 98.8795 63.6985 98.7382 63.8091C98.5477 63.9601 98.3672 64 98.1552 64C97.954 64 97.6423 63.9699 97.3916 63.7389C97.0799 63.4472 97.0281 62.9943 97.0281 62.5919C97.0281 62.2307 97.0485 61.6871 97.3404 61.3457C97.673 60.953 98.2366 60.9125 98.5273 60.9125C98.5985 60.9125 98.7894 60.9125 99.1001 60.9433V60.4202C99.1001 60.2794 99.0909 60.1284 98.9695 59.9974C98.8686 59.8869 98.7182 59.8373 98.5678 59.8373C98.4259 59.8373 98.2759 59.8869 98.1654 60.0179C98.0954 60.0987 98.044 60.2093 98.0349 60.34H97.0799C97.069 59.8869 97.261 59.4954 97.4919 59.2634C97.7432 59.0127 98.1552 58.8515 98.6179 58.8515C99.0704 58.8515 99.4419 59.0127 99.6932 59.2538C100.057 59.6157 100.106 60.088 100.106 60.4305V63.9198H99.1001V63.4273Z" fill="#90949B"/>
</svg>
