<svg width="160" height="160" viewBox="0 0 160 160" fill="none" xmlns="http://www.w3.org/2000/svg">
<rect width="160" height="160" rx="80" fill="white"/>
<path fill-rule="evenodd" clip-rule="evenodd" d="M75.7288 67.1967C80.3683 70.1795 85.008 73.1619 89.6477 76.1445C90.4501 76.6604 91.2839 77.1595 92.0042 77.7893C92.598 78.3086 93.1678 79.0086 93.1678 79.9999C93.1678 80.9913 92.598 81.6913 92.0042 82.2106C91.4428 82.7014 90.6408 83.2169 89.7265 83.8046L75.8118 92.7498C74.8973 93.3374 73.9858 93.9685 72.9922 94.4174C72.2086 94.7714 71.2314 95.0325 70.269 94.5071C69.3067 93.9818 68.9979 93.0186 68.872 92.168C68.7499 91.3431 68.7499 90.2558 68.75 88.9931C68.75 82.9977 68.75 77.0022 68.75 71.0068C68.7499 69.744 68.7499 68.6568 68.872 67.8319C68.9979 66.9813 69.3067 66.0181 70.269 65.4927C71.2314 64.9673 72.2086 65.2284 72.9922 65.5825C73.7521 65.9258 74.6666 66.5138 75.7288 67.1967ZM71.4728 67.6976C71.5405 67.704 71.6876 67.7364 71.9628 67.8607C72.5334 68.1185 73.291 68.6016 74.4599 69.353L88.2957 78.2475C89.3127 78.9013 89.9538 79.3173 90.3585 79.6713C90.55 79.8388 90.6287 79.9426 90.6588 79.9935L90.6625 79.9999L90.6588 80.0064C90.6287 80.0571 90.55 80.1611 90.3585 80.3286C89.9538 80.6826 89.3127 81.0986 88.2957 81.7525L74.4599 90.6468C73.291 91.3983 72.5334 91.8813 71.9628 92.1391C71.6876 92.2635 71.5405 92.2959 71.4728 92.3023C71.4416 92.2418 71.3893 92.1006 71.345 91.8018C71.2533 91.1825 71.25 90.2841 71.25 88.8945V71.1055C71.25 69.7158 71.2533 68.8174 71.345 68.198C71.3893 67.8992 71.4416 67.758 71.4728 67.6976Z" fill="#22282F"/>
<path d="M71.4728 67.6976C71.5405 67.704 71.6876 67.7364 71.9628 67.8607C72.5334 68.1185 73.291 68.6016 74.4599 69.353L88.2957 78.2475C89.3127 78.9013 89.9538 79.3173 90.3585 79.6713C90.55 79.8388 90.6287 79.9426 90.6588 79.9935L90.6625 79.9999L90.6588 80.0064C90.6287 80.0571 90.55 80.1611 90.3585 80.3286C89.9538 80.6826 89.3127 81.0986 88.2957 81.7525L74.4599 90.6468C73.291 91.3983 72.5334 91.8813 71.9628 92.1391C71.6876 92.2635 71.5405 92.2959 71.4728 92.3023C71.4416 92.2418 71.3893 92.1006 71.345 91.8018C71.2533 91.1825 71.25 90.2841 71.25 88.8945V71.1055C71.25 69.7158 71.2533 68.8174 71.345 68.198C71.3893 67.8992 71.4416 67.758 71.4728 67.6976Z" fill="#22282F"/>
</svg>
